<?xml version="1.0" encoding="UTF-8" standalone="no"?>
<svg
   xmlns:dc="http://purl.org/dc/elements/1.1/"
   xmlns:cc="http://creativecommons.org/ns#"
   xmlns:rdf="http://www.w3.org/1999/02/22-rdf-syntax-ns#"
   xmlns:svg="http://www.w3.org/2000/svg"
   xmlns="http://www.w3.org/2000/svg"
   viewBox="0 0 300 265.33334"
   height="265.33334"
   width="300"
   xml:space="preserve"
   id="svg2"
   version="1.1"><metadata
     id="metadata8"><rdf:RDF><cc:Work
         rdf:about=""><dc:format>image/svg+xml</dc:format><dc:type
           rdf:resource="http://purl.org/dc/dcmitype/StillImage" /></cc:Work></rdf:RDF></metadata><defs
     id="defs6" /><g
     transform="matrix(1.3333333,0,0,-1.3333333,0,265.33333)"
     id="g10"><g
       transform="scale(0.1)"
       id="g12"><path
         id="path14"
         style="fill:#ffffff;fill-opacity:1;fill-rule:evenodd;stroke:none"
         d="m 990.43,1644.49 15.98,-15.97 16.01,15.97 -16.01,16.02 -15.98,-16.02" /><path
         id="path16"
         style="fill:#ffffff;fill-opacity:1;fill-rule:evenodd;stroke:none"
         d="m 1139.41,1971.48 -15.97,-15.97 7.5,-7.5 c 6.64,4.33 13.32,8.32 20,11.99 l -11.53,11.48" /><path
         id="path18"
         style="fill:#ffffff;fill-opacity:1;fill-rule:evenodd;stroke:none"
         d="m 995.43,1695.51 -16.02,15.97 -15.969,-15.97 15.969,-16.02 16.02,16.02" /><path
         id="path20"
         style="fill:#ffffff;fill-opacity:1;fill-rule:evenodd;stroke:none"
         d="m 942.422,1695.51 -16.012,15.97 -15.98,-15.97 15.98,-16.02 16.012,16.02" /><path
         id="path22"
         style="fill:#ffffff;fill-opacity:1;fill-rule:evenodd;stroke:none"
         d="m 1021.91,1690.51 c -0.66,2.65 -1.17,5.51 -1.48,8.47 l -3.52,-3.47 5,-5" /><path
         id="path24"
         style="fill:#ffffff;fill-opacity:1;fill-rule:evenodd;stroke:none"
         d="m 952.93,1660.51 -16.02,-16.02 16.02,-15.97 15.98,15.97 -15.98,16.02" /><path
         id="path26"
         style="fill:#ffffff;fill-opacity:1;fill-rule:evenodd;stroke:none"
         d="m 963.441,1593.98 15.969,-15.97 8.52,8.01 7.5,7.96 -16.02,16.02 -15.969,-16.02" /><path
         id="path28"
         style="fill:#ffffff;fill-opacity:1;fill-rule:evenodd;stroke:none"
         d="m 899.41,1660.51 -15.969,-16.02 15.969,-15.97 16.02,15.97 -16.02,16.02" /><path
         id="path30"
         style="fill:#ffffff;fill-opacity:1;fill-rule:evenodd;stroke:none"
         d="m 910.43,1593.98 15.511,-15.46 0.469,-0.51 8.512,8.01 7.5,7.96 -16.012,16.02 -15.98,-16.02" /><path
         id="path32"
         style="fill:#ffffff;fill-opacity:1;fill-rule:evenodd;stroke:none"
         d="m 1024.92,1586.02 8.01,-8.01 8.48,8.01 7.5,7.96 -15.98,16.02 -16.02,-16.02 8.01,-7.96" /><path
         id="path34"
         style="fill:#ffffff;fill-opacity:1;fill-rule:evenodd;stroke:none"
         d="m 1022.42,1904.49 -16.01,16.02 -15.98,-16.02 15.98,-15.97 16.01,15.97" /><path
         id="path36"
         style="fill:#ffffff;fill-opacity:1;fill-rule:evenodd;stroke:none"
         d="m 1048.91,1955.51 -15.98,15.97 -16.02,-15.97 16.02,-16.02 15.98,16.02" /><path
         id="path38"
         style="fill:#ffffff;fill-opacity:1;fill-rule:evenodd;stroke:none"
         d="m 1059.41,1888.52 16.02,15.97 -16.02,16.02 -15.97,-16.02 15.97,-15.97" /><path
         id="path40"
         style="fill:#ffffff;fill-opacity:1;fill-rule:evenodd;stroke:none"
         d="m 1101.91,1955.51 -15.97,15.97 -16.02,-15.97 16.02,-16.02 15.97,16.02" /><path
         id="path42"
         style="fill:#ffffff;fill-opacity:1;fill-rule:evenodd;stroke:none"
         d="m 968.91,1904.49 -15.98,16.02 -16.02,-16.02 16.02,-15.97 15.98,15.97" /><path
         id="path44"
         style="fill:#ffffff;fill-opacity:1;fill-rule:evenodd;stroke:none"
         d="m 990.43,1803.01 15.98,-16.02 16.01,16.02 -16.01,15.97 -15.98,-15.97" /><path
         id="path46"
         style="fill:#ffffff;fill-opacity:1;fill-rule:evenodd;stroke:none"
         d="m 883.441,1803.01 15.969,-16.02 16.02,16.02 -16.02,15.97 -15.969,-15.97" /><path
         id="path48"
         style="fill:#ffffff;fill-opacity:1;fill-rule:evenodd;stroke:none"
         d="m 952.93,1818.98 -16.02,-15.97 16.02,-16.02 15.98,16.02 -15.98,15.97" /><path
         id="path50"
         style="fill:#ffffff;fill-opacity:1;fill-rule:evenodd;stroke:none"
         d="m 963.441,1853.52 15.969,-16.02 16.02,16.02 -16.02,15.97 -15.969,-15.97" /><path
         id="path52"
         style="fill:#ffffff;fill-opacity:1;fill-rule:evenodd;stroke:none"
         d="m 926.41,1837.5 16.012,16.02 -16.012,15.97 -15.98,-15.97 15.98,-16.02" /><path
         id="path54"
         style="fill:#ffffff;fill-opacity:1;fill-rule:evenodd;stroke:none"
         d="m 1032.93,1869.49 -16.02,-15.97 16.02,-16.02 11.48,11.02 c 1.02,2.3 2,4.49 3.01,6.48 l -14.49,14.49" /><path
         id="path56"
         style="fill:#000000;fill-opacity:1;fill-rule:evenodd;stroke:none"
         d="m 1413.91,1808.01 c 5.35,-22.66 8.16,-46.02 8.51,-70 -0.35,-9.69 -0.82,-19.34 -1.48,-29.03 51.99,-33.63 97.15,-74.8 135.47,-123.47 38.36,-48.36 68.16,-101.99 89.53,-161.02 21.33,-59.33 32.15,-122.15 32.5,-188.47 -0.35,-69.34 -12.19,-134.85 -35.51,-196.53 -23.01,-61.638 -55.51,-117.15 -97.5,-166.478 -41.68,-49.34 -90.51,-90.512 -146.52,-123.524 -55.98,-33.008 -117,-55.66 -182.97,-68.008 l 76.48,781.53 h -218.01 l 6.53,-211.53 c 4.33,8.68 9.33,15.51 15,20.51 5.97,5 12.3,7.5 18.98,7.5 8.67,-0.31 16.33,-4.33 23.01,-11.99 6.99,-7.66 12.5,-18.01 16.48,-31.02 4.03,-12.96 6.18,-27.65 6.53,-43.98 0,-16.02 -2.19,-30.51 -6.53,-43.52 -3.98,-13.32 -9.49,-23.82 -16.48,-31.48 -6.99,-7.66 -14.69,-11.48 -23.01,-11.48 -11.68,0.31 -21.68,7.14 -30,20.46 l 14.49,-453.468 2,-65 1.01,-17.5 c 3.99,0 8.17,0 12.5,0 89.65,0.66 173.32,17.5 251.02,50.508 77.65,33.32 146.13,79.492 205.47,138.468 59.02,59.032 105.19,127.5 138.51,205.512 33.01,77.66 49.85,161.33 50.51,251.02 -0.35,83.32 -15,161.48 -44.02,234.49 -28.99,73.32 -69.34,138.83 -120.98,196.48 -51.99,57.35 -112.5,104.34 -181.52,141.02" /><path
         id="path58"
         style="fill:#ffffff;fill-opacity:1;fill-rule:evenodd;stroke:none"
         d="m 1085.43,1126.02 -4.02,125.46 c -7.97,-15.97 -12.15,-35.66 -12.5,-58.98 0,-13.32 1.52,-25.82 4.53,-37.5 2.97,-11.33 6.99,-21.02 11.99,-28.98" /><path
         id="path60"
         style="fill:#003f63;fill-opacity:1;fill-rule:evenodd;stroke:none"
         d="m 1101.41,608.012 -2,65 -14.49,453.468 c -5,8.01 -8.98,17.7 -11.99,29.03 -2.66,11.33 -4.02,23.67 -4.02,36.99 0,23.67 4.02,43.52 12.03,59.49 l -6.53,211.02 h -137.5 l 77,-781.53 c -65.98,12.348 -127,35 -182.969,68.008 C 774.57,782.5 725.59,823.672 683.91,873.012 c -41.64,49.648 -74.14,105.148 -97.5,166.478 -23.32,61.68 -35.16,127.19 -35.469,196.53 0.309,66.32 11.129,129.14 32.5,188.47 21.329,59.03 51.129,112.85 89.489,161.53 38.672,48.32 83.98,89.33 135.98,122.96 -0.98,9.69 -1.488,19.34 -1.488,29.03 0,24.33 2.656,47.65 8.008,70 -69.02,-36.68 -129.489,-83.67 -181.52,-141.02 -51.64,-57.65 -92,-123.16 -120.98,-196.48 -29.02,-73.01 -43.668,-151.17 -44.02,-234.49 0.66,-88.36 17.18,-171.18 49.531,-248.52 C 551.09,910.512 596.41,842.66 654.41,783.98 712.07,725 779.102,678.672 855.43,645 c 76.332,-33.98 158.48,-52.148 246.48,-54.488 l -0.5,17.5" /><path
         id="path62"
         style="fill:#752330;fill-opacity:1;fill-rule:evenodd;stroke:none"
         d="m 926.41,1869.49 16.012,-15.97 -16.012,-16.53 -15.98,16.53 15.98,15.97 m 26.52,50.51 15.98,-16.02 -15.98,-15.97 -16.02,15.97 16.02,16.02 m 43.011,-66.48 -16.531,-16.53 -15.969,16.53 15.969,15.97 16.531,-15.97 m 10.469,66.48 16.01,-16.02 -16.01,-15.97 -15.98,15.97 15.98,16.02 m 26.52,51.02 15.98,-16.02 -15.98,-16.02 -16.02,16.02 16.02,16.02 m 43.01,-67.04 -16.53,-15.97 -15.97,15.97 15.97,16.02 16.53,-16.02 m 10.47,67.04 16.01,-16.02 -16.01,-16.02 -16.49,16.02 16.49,16.02 m -63.99,-168.52 -16.01,-16.02 -15.98,16.02 15.98,16.02 16.01,-16.02 m -85.51,0 16.02,16.02 15.98,-16.02 -15.98,-16.02 -16.02,16.02 m -36.988,-16.02 -16.481,16.02 16.481,16.02 16.019,-16.02 -16.019,-16.02 m -37.5,-15.97 h 158.008 c 3.98,28.01 11.99,53.98 23.98,78.01 l -11.48,-11.53 -16.02,16.53 16.02,15.97 14.49,-14.49 c 20.35,37.66 48.17,68.52 83.52,92.5 l -7.5,7.5 15.97,16.02 11.53,-11.53 c 13.32,7.35 27.3,13.52 41.99,18.52 -24.69,8.01 -50.66,11.99 -78.01,11.99 -45,-0.35 -86.01,-10.82 -123.01,-31.48 l 4.031,-3.52 -16.531,-16.02 -7.5,7.5 c -35,-23.98 -62.648,-55 -83,-92.96 v -0.51 c -13.32,-25.35 -22.148,-52.85 -26.488,-82.5" /><path
         id="path64"
         style="fill:#752330;fill-opacity:1;fill-rule:evenodd;stroke:none"
         d="m 1005.94,1628.52 -16.018,15.97 16.018,16.02 15.97,-16.02 -15.97,-15.97 m 42.97,-35 -7.97,-8.01 -8.01,-8.01 -8.52,8.01 -8,8.01 16.52,15.97 15.98,-15.97 m -60.98,-8.01 -8.52,-8.01 -8.469,8.01 -7.5,8.01 15.969,15.97 16.02,-15.97 -7.5,-8.01 m -51.52,58.98 16.52,16.02 15.98,-16.02 -15.98,-15.97 -16.52,15.97 m -2,-58.98 -8.469,-8.01 -16.019,16.02 16.019,15.97 16.481,-15.97 -8.012,-8.01 m -50.969,58.98 15.969,16.02 16.02,-16.02 -16.02,-15.97 -15.969,15.97 m 42.5,66.99 16.481,-15.97 -16.481,-16.53 -16.019,16.53 16.019,15.97 m 53.469,0 16.02,-15.97 -16.02,-16.53 -15.969,16.53 15.969,15.97 m 37,-15.97 4.02,3.47 c -1.33,9.03 -2.19,18.17 -2.5,27.5 H 859.922 c 0.348,-8.63 1.019,-17.3 1.988,-25.97 l 11.02,10.97 15.98,-15.97 -15.98,-16.53 -9.02,9.03 c 4.68,-24.03 12.34,-46.53 23,-67.5 10.668,-21.02 23.828,-40 39.5,-56.99 h 157.5 c -15.98,17.3 -29.34,36.83 -40,58.47 -10.67,21.33 -18.17,44.18 -22.5,68.52 l -5,5" /><path
         id="path66"
         style="fill:#ffffff;fill-opacity:1;fill-rule:evenodd;stroke:none"
         d="m 1288.44,1904.49 -16.02,16.02 -16.01,-16.02 16.01,-15.97 16.02,15.97" /><path
         id="path68"
         style="fill:#ffffff;fill-opacity:1;fill-rule:evenodd;stroke:none"
         d="m 1112.93,1628.52 15.98,15.97 -15.98,16.02 -16.02,-16.02 16.02,-15.97" /><path
         id="path70"
         style="fill:#ffffff;fill-opacity:1;fill-rule:evenodd;stroke:none"
         d="m 1155.43,1955.51 -4.49,4.49 c -7.03,-3.67 -13.67,-7.66 -20,-11.99 l 8.47,-8.52 16.02,16.02" /><path
         id="path72"
         style="fill:#ffffff;fill-opacity:1;fill-rule:evenodd;stroke:none"
         d="m 1069.92,1593.98 8.01,-7.96 8.01,-8.01 8.47,8.01 7.5,7.96 -15.97,16.02 -16.02,-16.02" /><path
         id="path74"
         style="fill:#ffffff;fill-opacity:1;fill-rule:evenodd;stroke:none"
         d="m 1128.91,1904.49 -15.98,16.02 -16.02,-16.02 16.02,-15.97 15.98,15.97" /><path
         id="path76"
         style="fill:#ffffff;fill-opacity:1;fill-rule:evenodd;stroke:none"
         d="m 1219.41,1888.52 16.02,15.97 -16.02,16.02 -15.97,-16.02 15.97,-15.97" /><path
         id="path78"
         style="fill:#ffffff;fill-opacity:1;fill-rule:evenodd;stroke:none"
         d="m 1165.94,1888.52 15.97,15.97 -15.97,16.02 -16.02,-16.02 16.02,-15.97" /><path
         id="path80"
         style="fill:#ffffff;fill-opacity:1;fill-rule:evenodd;stroke:none"
         d="m 1208.91,1955.51 -15.98,15.97 -16.02,-15.97 16.02,-16.02 15.98,16.02" /><path
         id="path82"
         style="fill:#ffffff;fill-opacity:1;fill-rule:evenodd;stroke:none"
         d="m 1283.44,1593.98 15.97,-15.97 5,4.49 11.02,11.48 -16.02,16.02 -15.97,-16.02" /><path
         id="path84"
         style="fill:#ffffff;fill-opacity:1;fill-rule:evenodd;stroke:none"
         d="m 1047.42,1855 c -1.01,-1.99 -1.99,-3.98 -3.01,-6.02 l 4.5,4.54 -1.49,1.48" /><path
         id="path86"
         style="fill:#ffffff;fill-opacity:1;fill-rule:evenodd;stroke:none"
         d="m 1229.92,1593.98 8.01,-7.96 8.01,-8.01 8.47,8.01 7.5,7.96 -15.97,16.02 -16.02,-16.02" /><path
         id="path88"
         style="fill:#ffffff;fill-opacity:1;fill-rule:evenodd;stroke:none"
         d="m 1272.42,1628.52 16.02,15.97 -16.02,16.02 -16.01,-16.02 16.01,-15.97" /><path
         id="path90"
         style="fill:#ffffff;fill-opacity:1;fill-rule:evenodd;stroke:none"
         d="m 1165.94,1628.52 15.97,15.97 -15.97,16.02 -16.02,-16.02 16.02,-15.97" /><path
         id="path92"
         style="fill:#ffffff;fill-opacity:1;fill-rule:evenodd;stroke:none"
         d="m 1123.44,1593.98 15.97,-15.97 8.52,8.01 7.5,7.96 -16.02,16.02 -15.97,-16.02" /><path
         id="path94"
         style="fill:#ffffff;fill-opacity:1;fill-rule:evenodd;stroke:none"
         d="m 1176.91,1593.98 8.01,-7.96 8.01,-8.01 8.48,8.01 7.5,7.96 -15.98,16.02 -16.02,-16.02" /><path
         id="path96"
         style="fill:#ffffff;fill-opacity:1;fill-rule:evenodd;stroke:none"
         d="m 1219.41,1628.52 16.02,15.97 -16.02,16.02 -15.97,-16.02 15.97,-15.97" /><path
         id="path98"
         style="fill:#ffffff;fill-opacity:1;fill-rule:evenodd;stroke:none"
         d="m 1219.41,1818.98 -15.97,-15.97 15.97,-16.02 16.02,16.02 -16.02,15.97" /><path
         id="path100"
         style="fill:#ffffff;fill-opacity:1;fill-rule:evenodd;stroke:none"
         d="m 1059.41,1628.52 16.02,15.97 -16.02,16.02 -15.97,-16.02 15.97,-15.97" /><path
         id="path102"
         style="fill:#ffffff;fill-opacity:1;fill-rule:evenodd;stroke:none"
         d="m 1155.43,1695.51 -16.02,15.97 -15.97,-15.97 15.97,-16.02 16.02,16.02" /><path
         id="path104"
         style="fill:#ffffff;fill-opacity:1;fill-rule:evenodd;stroke:none"
         d="m 1101.91,1695.51 -15.97,15.97 -16.02,-15.97 16.02,-16.02 15.97,16.02" /><path
         id="path106"
         style="fill:#ffffff;fill-opacity:1;fill-rule:evenodd;stroke:none"
         d="m 1309.92,1803.01 16.02,-16.02 15.97,16.02 -15.97,15.97 -16.02,-15.97" /><path
         id="path108"
         style="fill:#ffffff;fill-opacity:1;fill-rule:evenodd;stroke:none"
         d="m 1032.93,1679.49 15.98,16.02 -15.98,15.97 -12.5,-12.5 c 0.31,-2.96 0.82,-5.82 1.48,-8.47 l 11.02,-11.02" /><path
         id="path110"
         style="fill:#ffffff;fill-opacity:1;fill-rule:evenodd;stroke:none"
         d="m 1325.94,1628.52 15.97,15.97 -15.97,16.02 -16.02,-16.02 16.02,-15.97" /><path
         id="path112"
         style="fill:#ffffff;fill-opacity:1;fill-rule:evenodd;stroke:none"
         d="m 1315.43,1695.51 -16.02,15.97 -15.97,-15.97 15.97,-16.02 16.02,16.02" /><path
         id="path114"
         style="fill:#ffffff;fill-opacity:1;fill-rule:evenodd;stroke:none"
         d="m 1261.91,1695.51 -15.97,15.97 -16.02,-15.97 16.02,-16.02 15.97,16.02" /><path
         id="path116"
         style="fill:#ffffff;fill-opacity:1;fill-rule:evenodd;stroke:none"
         d="m 1208.91,1695.51 -15.98,15.97 -16.02,-15.97 16.02,-16.02 15.98,16.02" /><path
         id="path118"
         style="fill:#ffffff;fill-opacity:1;fill-rule:evenodd;stroke:none"
         d="m 1128.91,1803.01 -15.98,15.97 -16.02,-15.97 16.02,-16.02 15.98,16.02" /><path
         id="path120"
         style="fill:#ffffff;fill-opacity:1;fill-rule:evenodd;stroke:none"
         d="m 1192.93,1837.5 15.98,16.02 -15.98,15.97 -16.02,-15.97 16.02,-16.02" /><path
         id="path122"
         style="fill:#ffffff;fill-opacity:1;fill-rule:evenodd;stroke:none"
         d="m 1181.91,1803.01 -15.97,15.97 -16.02,-15.97 16.02,-16.02 15.97,16.02" /><path
         id="path124"
         style="fill:#ffffff;fill-opacity:1;fill-rule:evenodd;stroke:none"
         d="m 1139.41,1837.5 16.02,16.02 -16.02,15.97 -15.97,-15.97 15.97,-16.02" /><path
         id="path126"
         style="fill:#ffffff;fill-opacity:1;fill-rule:evenodd;stroke:none"
         d="m 1075.43,1803.01 -16.02,15.97 -15.97,-15.97 15.97,-16.02 16.02,16.02" /><path
         id="path128"
         style="fill:#ffffff;fill-opacity:1;fill-rule:evenodd;stroke:none"
         d="m 1085.94,1837.5 15.97,16.02 -15.97,15.97 -16.02,-15.97 16.02,-16.02" /><path
         id="path130"
         style="fill:#ffffff;fill-opacity:1;fill-rule:evenodd;stroke:none"
         d="m 1272.42,1818.98 -16.01,-15.97 16.01,-16.02 16.02,16.02 -16.02,15.97" /><path
         id="path132"
         style="fill:#ffffff;fill-opacity:1;fill-rule:evenodd;stroke:none"
         d="m 1283.44,1853.52 15.97,-16.02 16.02,16.02 -16.02,15.97 -15.97,-15.97" /><path
         id="path134"
         style="fill:#ffffff;fill-opacity:1;fill-rule:evenodd;stroke:none"
         d="m 1229.92,1853.52 16.02,-16.02 15.97,16.02 -15.97,15.97 -16.02,-15.97" /><path
         id="path136"
         style="fill:#752330;fill-opacity:1;fill-rule:evenodd;stroke:none"
         d="m 1182.42,1904.49 -16.01,-15.97 -16.49,15.97 16.49,16.02 16.01,-16.02 m 10.51,66.99 15.98,-16.48 -15.98,-16.02 -16.02,16.02 16.02,16.48 m 42.5,-66.99 -16.02,-15.97 -15.97,15.97 15.97,16.02 16.02,-16.02 m 26.99,-50.97 -16.01,-16.02 -16.49,16.02 16.49,15.97 16.01,-15.97 m 10.51,66.99 15.98,-16.02 -15.98,-15.97 -16.02,15.97 16.02,16.02 m 26.48,-51.02 16.02,-15.97 -16.02,-16.02 -15.97,16.02 15.97,15.97 m 26.53,-83.01 -16.02,16.02 16.02,16.48 16.48,-16.48 -16.48,-16.02 m -69.03,16.02 16.02,16.48 15.98,-16.48 -15.98,-16.02 -16.02,16.02 m -37.5,-16.02 -15.97,16.02 15.97,16.48 16.02,-16.48 -16.02,-16.02 m -69.49,16.02 16.49,16.48 16.01,-16.48 -16.01,-16.02 -16.49,16.02 m -53.01,0 16.02,16.48 15.98,-16.48 -15.98,-16.02 -16.02,16.02 m -53.47,0 16.48,16.48 16.02,-16.48 -16.02,-16.02 -16.48,16.02 m 58.98,51.02 -16.01,-16.02 -15.98,16.02 15.98,15.97 16.01,-15.97 m 10.51,66.99 15.98,-16.02 -15.98,-15.97 -16.02,15.97 16.02,16.02 m 43.01,-66.99 -16.53,-16.02 -15.97,16.02 15.97,15.97 16.53,-15.97 m 52.97,0 -15.98,-16.02 -16.02,16.02 16.02,15.97 15.98,-15.97 m -52.97,101.48 -16.53,-16.02 -8.47,8.52 c -35.35,-23.67 -63.17,-54.49 -83.52,-92.5 l 1.49,-1.48 -4.5,-4.54 c -11.99,-24.33 -20,-50.31 -23.98,-77.96 h 346.99 c -3.98,26.32 -11.48,51.13 -22.5,74.49 l -8.01,8.01 2.5,2.5 c -20.66,37.65 -48.67,68.32 -83.98,91.99 l -9.02,-9.03 -16.49,16.02 5,5 c -13.32,7.34 -27.34,13.32 -41.99,18.01 -14.69,-5 -28.67,-11.02 -41.99,-18.01 l 5,-5" /><path
         id="path138"
         style="fill:#752330;fill-opacity:1;fill-rule:evenodd;stroke:none"
         d="m 1075.43,1644.49 -16.02,-15.97 -15.97,15.97 15.97,16.02 16.02,-16.02 m 10.51,66.99 16.48,-15.97 -16.48,-16.53 -16.02,16.53 16.02,15.97 m 42.97,-66.99 -15.98,-15.97 -16.52,15.97 16.52,16.02 15.98,-16.02 m 10.5,66.99 16.02,-15.97 -16.02,-16.53 -15.97,16.53 15.97,15.97 m 42.5,-66.99 -15.97,-15.97 -16.02,15.97 16.02,16.02 15.97,-16.02 m 11.02,66.99 15.98,-15.97 -15.98,-16.53 -16.52,16.53 16.52,15.97 m 42.5,-66.99 -16.02,-15.97 -15.97,15.97 15.97,16.02 16.02,-16.02 m 10.51,66.99 15.97,-15.97 -15.97,-16.53 -16.02,16.53 16.02,15.97 m 42.97,-66.99 -16.49,-15.97 -16.01,15.97 16.01,16.02 16.49,-16.02 m 10.5,66.99 16.02,-15.97 -16.02,-16.53 -15.97,16.53 15.97,15.97 m 42.5,-66.99 -15.97,-15.97 -16.02,15.97 16.02,16.02 15.97,-16.02 m -37.5,-61.99 -5,-5 -8.47,8.01 -7.5,8.01 15.97,15.97 16.02,-15.97 -11.02,-11.02 m -50,3.01 -8.47,-8.01 -16.02,16.02 16.02,15.97 15.97,-15.97 -7.5,-8.01 m -53.47,0 -8.01,-8.01 -8.52,8.01 -8,8.01 16.52,15.97 15.98,-15.97 -7.97,-8.01 m -53.01,0 -8.52,-8.01 -8.47,8.01 -7.5,8.01 15.97,15.97 16.02,-15.97 -7.5,-8.01 m -53.52,0 -8.47,-8.01 -16.02,16.02 16.02,15.97 16.48,-15.97 -8.01,-8.01 m -73.98,113.47 12.5,12.5 15.98,-15.97 -15.98,-16.53 -11.02,11.53 c 4.34,-24.34 11.84,-47.19 22.5,-68.52 10.36,-21.64 23.52,-41.17 39.5,-58.47 h 219.02 c 15.98,17.3 29.34,36.83 40,58.47 10.66,21.33 18.16,44.18 22.5,68.52 l -11.02,-11.53 -0.97,1.02 -1.02,-1.02 -16.01,16.53 16.01,15.97 1.02,-0.97 0.97,0.97 12.5,-12.5 c 1.33,9.03 2.19,18.17 2.5,27.5 h -351.48 c 0.31,-9.33 1.17,-18.47 2.5,-27.5" /><path
         id="path140"
         style="fill:#004165;fill-opacity:1;fill-rule:nonzero;stroke:none"
         d="M 0.0390625,235.512 V 593.48 H 184.262 c 34.258,0 60.386,-2.968 78.437,-8.91 18,-5.859 32.531,-16.718 43.59,-32.66 11.133,-15.859 16.723,-35.109 16.723,-57.808 0,-19.922 -4.301,-37.032 -12.813,-51.403 -8.437,-14.379 -20.078,-26.058 -34.847,-35 -9.372,-5.75 -22.301,-10.469 -38.75,-14.219 13.128,-4.378 22.699,-8.75 28.75,-13.128 4.058,-3.051 9.918,-9.332 17.66,-18.903 7.808,-9.609 13.008,-17 15.617,-22.187 l 53.441,-103.75 h -125 l -59.058,109.367 c -7.5,14.141 -14.184,23.359 -20,27.66 -8.051,5.512 -17.114,8.281 -27.192,8.281 h -9.691 V 235.512 Z M 111.129,448.48 h 46.57 c 5.071,0 14.879,1.598 29.371,4.84 7.27,1.45 13.2,5.16 17.809,11.09 4.691,6.02 7.031,12.969 7.031,20.789 0,11.563 -3.711,20.391 -11.09,26.563 -7.3,6.25 -21.019,9.367 -41.09,9.367 h -48.601 z m 360.082,-37.66 -95,10 c 3.519,16.559 8.668,29.571 15.469,39.059 6.761,9.57 16.48,17.851 29.218,24.851 9.141,5.071 21.723,8.981 37.653,11.719 15.937,2.813 33.168,4.211 51.719,4.211 29.769,0 53.679,-1.68 71.718,-5 18.133,-3.359 33.172,-10.308 45.16,-20.93 8.512,-7.308 15.192,-17.66 20,-31.101 4.883,-13.43 7.34,-26.25 7.34,-38.43 V 290.66 c 0,-12.18 0.782,-21.789 2.352,-28.75 1.558,-6.871 4.922,-15.699 10.148,-26.398 h -93.277 c -3.75,6.636 -6.211,11.718 -7.34,15.148 -1.172,3.52 -2.312,9.07 -3.441,16.57 -13.051,-12.5 -25.942,-21.492 -38.75,-26.878 -17.621,-7.192 -38.051,-10.782 -61.25,-10.782 -30.942,0 -54.45,7.192 -70.469,21.559 -16.051,14.383 -24.063,32.031 -24.063,52.973 0,19.687 5.782,35.859 17.34,48.597 11.563,12.692 32.852,22.102 63.91,28.281 37.262,7.5 61.442,12.731 72.5,15.782 11.133,3.008 22.852,6.949 35.153,11.867 0,12.191 -2.5,20.711 -7.5,25.633 -5,4.879 -13.86,7.34 -26.563,7.34 -16.359,0 -28.59,-2.622 -36.718,-7.813 -6.36,-4.059 -11.481,-11.719 -15.309,-22.969 z m 86.09,-52.191 c -13.672,-4.918 -27.891,-9.219 -42.653,-12.969 -20.238,-5.43 -32.968,-10.738 -38.277,-15.93 -5.551,-5.32 -8.281,-11.41 -8.281,-18.281 0,-7.82 2.691,-14.219 8.121,-19.219 5.391,-4.929 13.437,-7.351 24.059,-7.351 11.019,0 21.289,2.66 30.781,7.973 9.57,5.386 16.328,11.949 20.32,19.687 3.938,7.691 5.93,17.731 5.93,30.16 z" /><path
         id="path142"
         style="fill:#004165;fill-opacity:1;fill-rule:nonzero;stroke:none"
         d="M 987.539,593.48 V 235.512 H 894.57 v 38.277 c -13.05,-16.25 -24.922,-27.269 -35.621,-32.969 -14.379,-7.5 -30.398,-11.25 -47.969,-11.25 -35.32,0 -62.308,13.442 -80.941,40.309 -18.559,26.883 -27.809,59.531 -27.809,97.973 0,42.886 10.231,75.777 30.782,98.597 20.617,22.813 46.789,34.211 78.59,34.211 15.386,0 29.418,-2.609 42.027,-7.808 12.582,-5.231 23.793,-13.051 33.601,-23.442 V 593.48 Z M 888.012,365.82 c 0,20.391 -4.34,35.629 -12.973,45.629 -8.668,10 -19.609,15 -32.809,15 -11.57,0 -21.25,-4.808 -29.07,-14.379 -7.808,-9.609 -11.711,-25.742 -11.711,-48.441 0,-21.168 3.981,-36.68 12.031,-46.559 8.122,-9.8 18.122,-14.691 30,-14.691 12.692,0 23.282,4.922 31.719,14.851 8.512,10 12.813,26.168 12.813,48.59 z" /><path
         id="path144"
         style="fill:#004165;fill-opacity:1;fill-rule:nonzero;stroke:none"
         d="m 1052.3,593.48 h 99.3789 V 525.8198 H 1052.3 Z m 0,-98.75 h 99.3789 V 235.511 H 1052.3 Z" /><path
         id="path146"
         style="fill:#004165;fill-opacity:1;fill-rule:nonzero;stroke:none"
         d="m 1203.36,364.41 c 0,39.57 13.32,72.192 40,97.82 26.76,25.622 62.85,38.43 108.28,38.43 51.88,0 91.09,-15.07 117.66,-45.148 21.25,-24.301 31.87,-54.184 31.87,-89.692 0,-39.8 -13.24,-72.461 -39.69,-97.968 -26.36,-25.551 -62.93,-38.282 -109.68,-38.282 -41.68,0 -75.39,10.629 -101.1,31.879 -31.56,26.129 -47.34,60.461 -47.34,102.961 z m 99.69,0.32 c 0,-23.128 4.61,-40.281 13.9,-51.41 9.38,-11.05 21.14,-16.558 35.32,-16.558 14.37,0 26.13,5.468 35.31,16.398 9.14,10.942 13.75,28.442 13.75,52.5 0,22.391 -4.65,39.07 -13.91,50 -9.3,11.02 -20.74,16.57 -34.37,16.57 -14.5,0 -26.49,-5.589 -35.94,-16.718 -9.38,-11.172 -14.06,-28.09 -14.06,-50.782 z" /><path
         id="path148"
         style="fill:#004165;fill-opacity:1;fill-rule:nonzero;stroke:none"
         d="m 1697.93,593.48 h 336.25 V 505.039 H 1921.37 V 235.512 h -110.63 v 269.527 h -112.81 z" /><path
         id="path150"
         style="fill:#004165;fill-opacity:1;fill-rule:nonzero;stroke:none"
         d="m 2088.95,235.512 h 110.781 V 593.481 H 2088.95 Z" /><path
         id="path152"
         style="fill:#772432;fill-opacity:1;fill-rule:nonzero;stroke:none"
         d="m 201.371,6.41016 h -27.973 l -30,109.83984 c -1.988,6.871 -4.847,19.219 -8.597,37.031 -2.102,-9.609 -3.86,-17.582 -5.313,-23.902 C 128.012,123.012 116.84,82.0313 95.8984,6.41016 H 67.9297 L 16.9883,179.379 H 41.3711 L 72.4609,69.5313 c 3.75,-13.75 7.1094,-27.9297 10.1602,-42.5 1.9492,8.9492 4.2578,18.75 6.8672,29.3789 2.582,10.6992 13.9527,51.7108 34.0627,122.9688 h 22.5 l 30,-107.6602 c 4.57,-17.6172 8.168,-32.5 10.789,-44.6875 l 1.09,4.2187 c 2.269,9.4492 4.101,17.1914 5.468,23.1289 1.332,5.9297 12.852,47.5701 34.532,125.0001 h 24.371 z M 291.988,116.559 c 4.774,8.64 10.512,15 17.192,19.062 6.64,4.07 15.082,6.098 25.308,6.098 14.383,0 24.922,-3.598 31.723,-10.778 6.879,-7.191 10.309,-19.222 10.309,-36.1012 V 6.41016 H 354.34 V 90.6211 c 0,9.3789 -0.899,16.2889 -2.66,20.7889 -1.68,4.57 -4.489,7.891 -8.442,10 -3.859,2.18 -9.289,3.281 -16.25,3.281 -10.429,0 -18.75,-3.671 -25,-10.941 -6.25,-7.191 -9.367,-16.8711 -9.367,-29.0586 V 6.41016 H 270.59 V 188.59 h 22.031 v -47.34 c 0,-5 -0.16,-10.16 -0.473,-15.469 -0.308,-5.312 -0.468,-8.402 -0.468,-9.222 z" /><path
         id="path154"
         style="fill:#772432;fill-opacity:1;fill-rule:nonzero;stroke:none"
         d="m 426.91,68.1211 c 0,-15.2305 3.129,-26.9922 9.379,-35.3125 6.332,-8.2383 15.551,-12.3398 27.66,-12.3398 9.571,0 17.223,1.9101 22.961,5.7812 5.82,3.8281 9.731,8.75 11.719,14.6914 L 518.16,35.3086 C 510.121,14.3789 492.07,3.91016 463.949,3.91016 c -19.609,0 -34.539,5.82031 -44.847,17.50004 -10.313,11.75 -15.473,29.2109 -15.473,52.3398 0,21.8711 5.16,38.629 15.473,50.309 10.308,11.761 25,17.66 44.058,17.66 38.949,0 58.442,-23.559 58.442,-70.6292 v -2.9687 z m 71.879,17.0391 c -1.25,13.9414 -4.84,24.1018 -10.777,30.4608 -5.864,6.449 -14.301,9.688 -25.313,9.688 -10.75,0 -19.219,-3.59 -25.469,-10.778 -6.25,-7.109 -9.652,-16.8708 -10.16,-29.3708 z" /><path
         id="path156"
         style="fill:#772432;fill-opacity:1;fill-rule:nonzero;stroke:none"
         d="M 550.469,6.41016 V 108.281 c 0,9.379 -0.27,19.688 -0.778,30.938 h 20.778 c 0.703,-15 1.09,-24.059 1.09,-27.188 h 0.472 c 3.52,11.449 7.578,19.258 12.188,23.438 4.57,4.14 11.011,6.25 19.371,6.25 2.89,0 5.859,-0.43 8.91,-1.25 V 120.16 c -2.93,0.82 -6.84,1.25 -11.719,1.25 -9.179,0 -16.211,-3.988 -21.09,-11.879 C 574.879,101.719 572.5,90.3906 572.5,75.6211 V 6.41016 Z" /><path
         id="path158"
         style="fill:#772432;fill-opacity:1;fill-rule:nonzero;stroke:none"
         d="m 650.82,68.1211 c 0,-15.2305 3.129,-26.9922 9.379,-35.3125 6.321,-8.2383 15.539,-12.3398 27.653,-12.3398 9.57,0 17.226,1.9101 22.968,5.7812 5.821,3.8281 9.731,8.75 11.719,14.6914 L 742.07,35.3086 C 734.02,14.3789 715.98,3.91016 687.852,3.91016 c -19.614,0 -34.532,5.82031 -44.84,17.50004 -10.313,11.75 -15.473,29.2109 -15.473,52.3398 0,21.8711 5.16,38.629 15.473,50.309 10.308,11.761 25,17.66 44.058,17.66 38.95,0 58.442,-23.559 58.442,-70.6292 v -2.9687 z m 71.879,17.0391 c -1.25,13.9414 -4.847,24.1018 -10.789,30.4608 -5.859,6.449 -14.289,9.688 -25.308,9.688 -10.743,0 -19.223,-3.59 -25.473,-10.778 -6.25,-7.109 -9.649,-16.8708 -10.149,-29.3708 z" /><path
         id="path160"
         style="fill:#772432;fill-opacity:1;fill-rule:nonzero;stroke:none"
         d="M 847.23,6.41016 V 179.379 h 23.43 V 25.6211 h 87.352 V 6.41016 Z" /><path
         id="path162"
         style="fill:#772432;fill-opacity:1;fill-rule:nonzero;stroke:none"
         d="m 1000.47,68.1211 c 0,-15.2305 3.12,-26.9922 9.37,-35.3125 6.33,-8.2383 15.55,-12.3398 27.66,-12.3398 9.57,0 17.23,1.9101 22.97,5.7812 5.82,3.8281 9.73,8.75 11.72,14.6914 l 19.53,-5.6328 c -8.05,-20.9297 -26.1,-31.39844 -54.22,-31.39844 -19.61,0 -34.53,5.82031 -44.84,17.50004 -10.32,11.75 -15.469,29.2109 -15.469,52.3398 0,21.8711 5.149,38.629 15.469,50.309 10.31,11.761 25,17.66 44.06,17.66 38.94,0 58.44,-23.559 58.44,-70.6292 v -2.9687 z m 71.87,17.0391 c -1.25,13.9414 -4.84,24.1018 -10.78,30.4608 -5.86,6.449 -14.29,9.688 -25.31,9.688 -10.74,0 -19.22,-3.59 -25.47,-10.778 -6.25,-7.109 -9.65,-16.8708 -10.16,-29.3708 z" /><path
         id="path164"
         style="fill:#772432;fill-opacity:1;fill-rule:nonzero;stroke:none"
         d="m 1157.27,3.91016 c -13.36,0 -23.4,3.46875 -30.16,10.46874 -6.68,7.0703 -10,16.75 -10,29.0625 0,13.75 4.53,24.2891 13.59,31.7188 9.07,7.3789 23.64,11.289 43.75,11.7187 L 1204.3,87.5 v 7.1914 c 0,10.8206 -2.31,18.5076 -6.88,23.1176 -4.61,4.691 -11.8,7.031 -21.56,7.031 -9.92,0 -17.15,-1.68 -21.72,-5 -4.49,-3.36 -7.15,-8.711 -7.97,-16.09 l -23.12,2.031 c 3.75,23.949 21.48,35.938 53.28,35.938 16.64,0 29.22,-3.867 37.65,-11.559 8.44,-7.621 12.66,-18.68 12.66,-33.1287 V 39.8398 c 0,-6.5585 0.82,-11.5195 2.5,-14.8398 1.76,-3.3594 5.04,-5 9.84,-5 2.19,0 4.61,0.3086 7.35,0.9414 V 7.19141 C 1240.7,5.85938 1235,5.16016 1229.3,5.16016 c -8.25,0 -14.22,2.10937 -17.97,6.39844 -3.67,4.3828 -5.74,11.1406 -6.25,20.3203 h -0.78 c -5.63,-10.2383 -12.19,-17.4687 -19.69,-21.7187 -7.5,-4.14067 -16.64,-6.25004 -27.34,-6.25004 z m 5,16.55864 c 8.12,0 15.31,1.8007 21.56,5.4726 6.33,3.75 11.33,8.7891 15,15.1484 3.63,6.4493 5.47,13.129 5.47,20 v 10.9415 l -24.22,-0.6211 c -10.31,-0.1211 -18.2,-1.1797 -23.6,-3.1289 -5.31,-1.9922 -9.45,-5 -12.34,-9.0625 -2.81,-4.0586 -4.22,-9.4493 -4.22,-16.0977 0,-7.1797 1.92,-12.7695 5.78,-16.7109 3.83,-3.9883 9.38,-5.9414 16.57,-5.9414 z" /><path
         id="path166"
         style="fill:#772432;fill-opacity:1;fill-rule:nonzero;stroke:none"
         d="m 1347.23,27.8086 c -4.07,-8.5469 -9.5,-14.6875 -16.25,-18.42969 -6.8,-3.64063 -15.16,-5.46875 -25.16,-5.46875 -16.8,0 -29.14,5.62109 -37.03,16.87114 -7.81,11.3281 -11.72,28.4804 -11.72,51.4101 0,46.3286 16.25,69.5276 48.75,69.5276 10.08,0 18.48,-1.879 25.16,-5.629 6.75,-3.668 12.18,-9.488 16.25,-17.5 h 0.31 l -0.31,14.851 v 55.149 h 22.03 V 33.75 c 0,-13.8711 0.23,-22.9687 0.78,-27.33984 h -21.09 c -0.24,1.32031 -0.47,4.37114 -0.79,9.05864 -0.31,4.7617 -0.46,8.9101 -0.46,12.3398 z m -67.03,45.1602 c 0,-18.668 2.42,-31.9883 7.34,-40 4.88,-8.0469 12.85,-12.0274 23.91,-12.0274 12.57,0 21.71,4.2891 27.34,12.9688 5.62,8.75 8.44,22.2187 8.44,40.4687 0,17.5703 -2.82,30.4611 -8.44,38.5901 -5.63,8.203 -14.65,12.34 -27.03,12.34 -11.17,0 -19.22,-4.137 -24.22,-12.34 -4.92,-8.239 -7.34,-21.5588 -7.34,-40.0002 z" /><path
         id="path168"
         style="fill:#772432;fill-opacity:1;fill-rule:nonzero;stroke:none"
         d="m 1420.31,68.1211 c 0,-15.2305 3.13,-26.9922 9.38,-35.3125 6.33,-8.2383 15.54,-12.3398 27.65,-12.3398 9.57,0 17.23,1.9101 22.97,5.7812 5.82,3.8281 9.73,8.75 11.72,14.6914 l 19.53,-5.6328 c -8.04,-20.9297 -26.09,-31.39844 -54.22,-31.39844 -19.61,0 -34.53,5.82031 -44.84,17.50004 -10.31,11.75 -15.47,29.2109 -15.47,52.3398 0,21.8711 5.16,38.629 15.47,50.309 10.31,11.761 25,17.66 44.06,17.66 38.95,0 58.44,-23.559 58.44,-70.6292 v -2.9687 z m 71.88,17.0391 c -1.25,13.9414 -4.85,24.1018 -10.78,30.4608 -5.86,6.449 -14.3,9.688 -25.32,9.688 -10.74,0 -19.21,-3.59 -25.47,-10.778 -6.24,-7.109 -9.64,-16.8708 -10.15,-29.3708 z" /><path
         id="path170"
         style="fill:#772432;fill-opacity:1;fill-rule:nonzero;stroke:none"
         d="M 1543.83,6.41016 V 108.281 c 0,9.379 -0.28,19.688 -0.78,30.938 h 20.78 c 0.7,-15 1.09,-24.059 1.09,-27.188 h 0.47 c 3.52,11.449 7.58,19.258 12.19,23.438 4.57,4.14 11.01,6.25 19.37,6.25 2.89,0 5.86,-0.43 8.91,-1.25 V 120.16 c -2.93,0.82 -6.84,1.25 -11.72,1.25 -9.18,0 -16.21,-3.988 -21.09,-11.879 -4.81,-7.812 -7.19,-19.1404 -7.19,-33.9099 V 6.41016 Z" /><path
         id="path172"
         style="fill:#772432;fill-opacity:1;fill-rule:nonzero;stroke:none"
         d="m 1726.88,43.1211 c 0,-12.5 -4.77,-22.1797 -14.22,-29.0625 -9.38,-6.78907 -22.62,-10.14844 -39.69,-10.14844 -16.49,0 -29.18,2.6914 -38.13,8.12114 -8.98,5.5078 -14.8,14.0585 -17.5,25.6289 l 19.54,3.75 c 1.87,-7.1094 5.7,-12.3086 11.56,-15.6289 5.94,-3.3594 14.1,-5 24.53,-5 11.25,0 19.45,1.7187 24.69,5.1601 5.19,3.4375 7.81,8.5899 7.81,15.4688 0,5.1914 -1.84,9.4101 -5.47,12.6484 -3.55,3.3203 -9.34,6.0195 -17.34,8.1328 l -15.94,4.2188 c -12.62,3.3203 -21.64,6.5586 -27.03,9.6796 -5.31,3.129 -9.49,6.9219 -12.5,11.4102 -3.05,4.5703 -4.53,10.0781 -4.53,16.559 0,12.191 4.25,21.41 12.81,27.66 8.63,6.332 21.25,9.531 37.81,9.531 14.69,0 26.29,-2.621 34.84,-7.809 8.64,-5.121 14.11,-13.363 16.41,-24.691 l -19.84,-2.34 c -1.25,5.82 -4.61,10.309 -10,13.43 -5.31,3.211 -12.46,4.851 -21.41,4.851 -10,0 -17.42,-1.57 -22.19,-4.691 -4.68,-3.051 -7.03,-7.578 -7.03,-13.59 0,-3.871 0.98,-7.0311 2.97,-9.5311 1.95,-2.4297 4.88,-4.5 8.75,-6.2578 3.83,-1.6719 11.92,-4.0195 24.22,-7.0313 11.76,-2.9296 20.2,-5.621 25.31,-8.121 5.2,-2.5 9.26,-5.2696 12.19,-8.2774 3.01,-3.0508 5.31,-6.5312 6.88,-10.4726 1.64,-3.9883 2.5,-8.5196 2.5,-13.5977 z" /><path
         id="path174"
         style="fill:#772432;fill-opacity:1;fill-rule:nonzero;stroke:none"
         d="M 1889.77,160.16 V 6.41016 h -23.44 V 160.16 h -59.38 v 19.219 h 142.19 V 160.16 Z" /><path
         id="path176"
         style="fill:#772432;fill-opacity:1;fill-rule:nonzero;stroke:none"
         d="m 1977.81,3.91016 c -13.36,0 -23.4,3.46875 -30.15,10.46874 -6.68,7.0703 -10,16.75 -10,29.0625 0,13.75 4.53,24.2891 13.59,31.7188 9.06,7.3789 23.63,11.289 43.75,11.7187 l 29.84,0.6211 v 7.1914 c 0,10.8206 -2.3,18.5076 -6.87,23.1176 -4.61,4.691 -11.8,7.031 -21.56,7.031 -9.93,0 -17.15,-1.68 -21.72,-5 -4.49,-3.36 -7.15,-8.711 -7.97,-16.09 l -23.13,2.031 c 3.75,23.949 21.49,35.938 53.29,35.938 16.64,0 29.21,-3.867 37.65,-11.559 8.44,-7.621 12.66,-18.68 12.66,-33.1287 V 39.8398 c 0,-6.5585 0.82,-11.5195 2.5,-14.8398 1.76,-3.3594 5.04,-5 9.84,-5 2.19,0 4.61,0.3086 7.35,0.9414 V 7.19141 c -5.63,-1.33203 -11.33,-2.03125 -17.04,-2.03125 -8.24,0 -14.22,2.10937 -17.96,6.39844 -3.68,4.3828 -5.75,11.1406 -6.26,20.3203 h -0.78 c -5.62,-10.2383 -12.18,-17.4687 -19.68,-21.7187 -7.5,-4.14067 -16.64,-6.25004 -27.35,-6.25004 z m 5,16.55864 c 8.13,0 15.31,1.8007 21.57,5.4726 6.32,3.75 11.32,8.7891 15,15.1484 3.63,6.4493 5.46,13.129 5.46,20 v 10.9415 l -24.22,-0.6211 c -10.31,-0.1211 -18.2,-1.1797 -23.59,-3.1289 -5.31,-1.9922 -9.45,-5 -12.34,-9.0625 -2.81,-4.0586 -4.22,-9.4493 -4.22,-16.0977 0,-7.1797 1.91,-12.7695 5.78,-16.7109 3.83,-3.9883 9.37,-5.9414 16.56,-5.9414 z" /><path
         id="path178"
         style="fill:#772432;fill-opacity:1;fill-rule:nonzero;stroke:none"
         d="m 2083.87,6.39844 h 22.1875 v 182.191 H 2083.87 Z" /><path
         id="path180"
         style="fill:#772432;fill-opacity:1;fill-rule:nonzero;stroke:none"
         d="M 2223.12,6.41016 2178.28,67.0313 2162.03,53.5898 V 6.41016 h -22.19 V 188.59 h 22.19 V 74.8398 l 58.28,64.3792 h 25.94 l -53.91,-57.0276 56.72,-75.78124 z" /></g></g></svg>