<?xml version="1.0" encoding="UTF-8" standalone="no"?><!DOCTYPE svg PUBLIC "-//W3C//DTD SVG 1.1//EN" "http://www.w3.org/Graphics/SVG/1.1/DTD/svg11.dtd"><svg width="100%" height="100%" viewBox="0 0 1125 163" version="1.1" xmlns="http://www.w3.org/2000/svg" xmlns:xlink="http://www.w3.org/1999/xlink" xml:space="preserve" xmlns:serif="http://www.serif.com/" style="fill-rule:evenodd;clip-rule:evenodd;stroke-linejoin:round;stroke-miterlimit:1.41421;"><g><g><g><path d="M305.82,0l230.248,15.549l302.39,-15.549l-1.912,162.918l-300.478,-28.84l-226.212,15.676l-4.036,-149.754Z" style="fill:#fff;"/><path d="M718.431,50.029c0.114,0.008 0.227,0.019 0.339,0.04c0.2,0.036 0.396,0.093 0.586,0.171c0.213,0.088 0.417,0.202 0.608,0.339c0.138,0.098 0.269,0.209 0.392,0.329c0.098,0.096 0.192,0.198 0.28,0.305c0.602,0.731 0.946,1.675 1.168,2.622c0.044,0.187 0.083,0.375 0.118,0.564c0.048,0.254 0.089,0.509 0.124,0.765c0.047,0.335 0.084,0.672 0.115,1.009c0.043,0.469 0.073,0.939 0.094,1.409c0.027,0.599 0.038,1.198 0.042,1.797c0.032,14.745 0.032,29.49 0,44.235c-0.005,0.67 -0.018,1.339 -0.052,2.007c-0.024,0.464 -0.056,0.927 -0.102,1.388c-0.033,0.332 -0.073,0.664 -0.122,0.993c-0.033,0.226 -0.071,0.45 -0.114,0.674c-0.037,0.188 -0.077,0.375 -0.122,0.56c-0.229,0.946 -0.584,1.886 -1.2,2.605c-0.091,0.106 -0.186,0.206 -0.287,0.299c-0.127,0.119 -0.262,0.227 -0.405,0.323c-0.194,0.132 -0.402,0.24 -0.618,0.321c-0.298,0.113 -0.612,0.175 -0.927,0.184c-0.293,0.009 -0.587,-0.021 -0.876,-0.068c-0.494,-0.08 -0.98,-0.219 -1.457,-0.382c-0.182,-0.062 -0.363,-0.13 -0.544,-0.194c-0.081,-0.028 -0.162,-0.055 -0.243,-0.081c-0.164,-0.052 -0.328,-0.1 -0.495,-0.137c-0.103,-0.023 -0.208,-0.043 -0.314,-0.053c-0.071,-0.006 -0.143,-0.004 -0.215,-0.002c-0.136,0.002 -0.272,0.009 -0.407,0.02c-0.403,0.034 -0.807,0.109 -1.189,0.257c-0.257,0.1 -0.503,0.234 -0.723,0.412c-0.089,0.072 -0.173,0.151 -0.251,0.236c-0.444,0.481 -0.695,1.138 -0.847,1.795c-0.026,0.114 -0.05,0.228 -0.071,0.343c-0.027,0.15 -0.05,0.301 -0.07,0.452c-0.028,0.221 -0.049,0.444 -0.064,0.667c-0.019,0.28 -0.028,0.56 -0.03,0.84c-0.007,1.142 0.128,2.302 0.543,3.356c0.063,0.16 0.132,0.317 0.207,0.47c0.096,0.193 0.201,0.381 0.315,0.56c0.206,0.322 0.441,0.62 0.7,0.889c0.257,0.265 0.539,0.5 0.843,0.694c0.3,0.192 0.621,0.342 0.952,0.452c0.415,0.137 0.845,0.21 1.277,0.237c0.147,0.009 0.295,0.013 0.442,0.011c0.274,-0.004 0.548,-0.025 0.821,-0.046c0.518,-0.041 1.036,-0.094 1.552,-0.151c0.813,-0.089 1.625,-0.188 2.437,-0.291c0.52,-0.066 1.04,-0.136 1.56,-0.202c0.19,-0.024 0.379,-0.047 0.569,-0.069c1.154,-0.129 2.312,-0.224 3.471,-0.266c0.985,-0.036 1.97,-0.031 2.955,-0.009c1.3,0.029 2.598,0.096 3.895,0.205c0.174,0.016 0.349,0.033 0.524,0.048c0.694,0.062 1.388,0.123 2.082,0.185c1.867,0.165 3.735,0.329 5.602,0.492c0.382,0.033 0.764,0.066 1.146,0.098c0.026,0.002 0.052,0.004 0.078,0.006c0.042,0.002 0.084,-0.001 0.127,-0.002c0.089,-0.002 0.178,-0.005 0.267,-0.009c0.323,-0.017 0.645,-0.053 0.964,-0.115c0.429,-0.084 0.854,-0.216 1.25,-0.421c0.231,-0.12 0.451,-0.264 0.654,-0.436c0.118,-0.099 0.23,-0.207 0.335,-0.323c0.52,-0.575 0.849,-1.328 1.059,-2.1c0.038,-0.139 0.073,-0.28 0.104,-0.422c0.04,-0.183 0.075,-0.367 0.105,-0.552c0.038,-0.235 0.069,-0.471 0.094,-0.708c0.031,-0.296 0.052,-0.594 0.065,-0.892c0.015,-0.314 0.021,-0.629 0.019,-0.943c-0.002,-0.259 -0.01,-0.517 -0.027,-0.775c-0.013,-0.206 -0.032,-0.41 -0.057,-0.614c-0.02,-0.16 -0.044,-0.32 -0.074,-0.478c-0.019,-0.104 -0.04,-0.207 -0.064,-0.309c-0.022,-0.094 -0.046,-0.187 -0.073,-0.28c-0.142,-0.492 -0.356,-0.978 -0.704,-1.332c-0.067,-0.069 -0.139,-0.132 -0.214,-0.189c-0.215,-0.163 -0.457,-0.277 -0.707,-0.356c-0.434,-0.139 -0.892,-0.177 -1.342,-0.174c-0.196,0.002 -0.391,0.009 -0.586,0.028c-0.139,0.014 -0.278,0.033 -0.414,0.063c-0.05,0.011 -0.1,0.024 -0.149,0.04c-0.04,0.012 -0.079,0.028 -0.119,0.042c-0.058,0.02 -0.081,0.027 -0.139,0.047c-0.069,0.022 -0.069,0.022 -0.139,0.043c-0.139,0.04 -0.279,0.077 -0.421,0.107c-0.506,0.111 -1.023,0.157 -1.538,0.156c-0.365,-0.001 -0.729,-0.059 -1.078,-0.178c-0.255,-0.087 -0.501,-0.205 -0.732,-0.353c-0.181,-0.116 -0.353,-0.249 -0.514,-0.397c-0.118,-0.109 -0.23,-0.226 -0.335,-0.349c-0.637,-0.745 -1.021,-1.705 -1.263,-2.684c-0.039,-0.16 -0.075,-0.32 -0.108,-0.482c-0.039,-0.193 -0.074,-0.387 -0.105,-0.582c-0.046,-0.292 -0.084,-0.586 -0.115,-0.881c-0.04,-0.377 -0.069,-0.755 -0.09,-1.134c-0.028,-0.516 -0.04,-1.031 -0.045,-1.548c-0.06,-20.832 0.163,-41.665 -0.001,-62.496c-0.005,-0.338 -0.022,-0.677 -0.067,-1.012c-0.026,-0.196 -0.061,-0.39 -0.112,-0.58c-0.016,-0.06 -0.034,-0.119 -0.053,-0.177c-0.016,-0.05 -0.034,-0.098 -0.054,-0.146c-0.056,-0.138 -0.128,-0.277 -0.233,-0.376c-0.033,-0.031 -0.069,-0.056 -0.106,-0.078c-0.104,-0.059 -0.221,-0.09 -0.335,-0.108c-0.115,-0.019 -0.23,-0.026 -0.346,-0.026c-0.18,0 -0.361,0.004 -0.541,0.012c-0.335,0.014 -0.669,0.038 -1.003,0.067c-0.768,0.068 -1.534,0.165 -2.299,0.273l-0.068,0.009c-0.063,0.016 -0.125,0.031 -0.187,0.046c-0.148,0.035 -0.147,0.035 -0.295,0.068c-0.355,0.076 -0.712,0.143 -1.07,0.197c-0.766,0.117 -1.538,0.186 -2.31,0.221c-0.559,0.025 -1.118,0.034 -1.677,0.022c-0.749,-0.017 -1.497,-0.069 -2.243,-0.134c-0.873,-0.075 -1.745,-0.171 -2.615,-0.277c-0.573,-0.07 -1.144,-0.145 -1.716,-0.216c-0.22,-0.026 -0.44,-0.053 -0.66,-0.079c-0.483,-0.055 -0.966,-0.109 -1.451,-0.151c-0.185,-0.017 -0.371,-0.031 -0.557,-0.043c-0.136,-0.008 -0.271,-0.015 -0.407,-0.015c-0.902,0.001 -1.819,0.148 -2.641,0.577c-0.15,0.078 -0.295,0.165 -0.436,0.261c-0.263,0.179 -0.508,0.39 -0.732,0.626c-0.295,0.31 -0.553,0.661 -0.767,1.044c-0.573,1.027 -0.808,2.238 -0.865,3.432c-0.009,0.173 -0.014,0.347 -0.015,0.521c-0.004,0.588 0.022,1.177 0.102,1.758c0.02,0.146 0.044,0.291 0.071,0.435c0.021,0.11 0.045,0.22 0.071,0.329c0.137,0.565 0.349,1.127 0.706,1.567c0.071,0.088 0.149,0.17 0.231,0.246c0.448,0.416 1.028,0.612 1.599,0.701c0.099,0.015 0.198,0.027 0.298,0.037c0.129,0.012 0.26,0.02 0.39,0.024c0.284,0.009 0.57,0.003 0.854,-0.025c0.201,-0.02 0.405,-0.048 0.599,-0.114c0.019,-0.007 0.039,-0.016 0.058,-0.023c0.088,-0.035 0.096,-0.038 0.184,-0.072c0.603,-0.225 1.22,-0.414 1.853,-0.501c0.232,-0.032 0.464,-0.048 0.698,-0.05c0.082,0.001 0.082,0.001 0.165,0.005Zm65.839,-9.017c0.158,0.006 0.317,0.017 0.474,0.037c0.342,0.045 0.679,0.13 1.005,0.259c0.355,0.142 0.695,0.336 1.008,0.582c0.235,0.184 0.454,0.397 0.654,0.634c0.149,0.175 0.286,0.363 0.413,0.562c0.097,0.153 0.188,0.312 0.272,0.476c0.543,1.064 0.792,2.306 0.886,3.537c0.016,0.204 0.027,0.408 0.035,0.612c0.009,0.241 0.013,0.481 0.014,0.721l0,10.18c-0.048,0.293 -0.05,0.602 -0.143,0.879c-0.094,0.276 -0.235,0.535 -0.409,0.75c-0.173,0.214 -0.385,0.39 -0.613,0.51c-0.465,0.245 -0.991,0.263 -1.466,0.051c-0.233,-0.104 -0.429,-0.304 -0.637,-0.468c-0.043,-0.034 -0.077,-0.084 -0.115,-0.126c-0.106,-0.116 -0.117,-0.127 -0.223,-0.242c-0.111,-0.119 -0.223,-0.237 -0.335,-0.355c-0.368,-0.383 -0.742,-0.757 -1.125,-1.118c-0.695,-0.658 -1.417,-1.276 -2.164,-1.847c-1.61,-1.229 -3.341,-2.232 -5.162,-2.923c-1.393,-0.528 -2.834,-0.871 -4.29,-1.022c-1.019,-0.105 -2.043,-0.113 -3.064,-0.054c-1.025,0.06 -2.048,0.193 -3.058,0.413c-1.055,0.228 -2.095,0.551 -3.107,0.973c-1.028,0.429 -2.026,0.963 -2.979,1.595c-0.791,0.525 -1.551,1.118 -2.274,1.769c-1.361,1.229 -2.588,2.665 -3.678,4.233c-1.054,1.516 -1.984,3.155 -2.778,4.884c-0.339,0.739 -0.654,1.494 -0.944,2.262c-0.251,0.664 -0.483,1.337 -0.698,2.017c-1.26,3.994 -1.906,8.236 -2.139,12.487c-0.035,0.638 -0.06,1.276 -0.077,1.915c-0.022,0.818 -0.03,1.636 -0.025,2.455c0.031,4.479 0.484,8.977 1.562,13.275c0.149,0.594 0.31,1.185 0.483,1.77c0.246,0.83 0.516,1.65 0.811,2.458c0.402,1.098 0.85,2.172 1.343,3.214c0.681,1.437 1.448,2.813 2.295,4.117c1.029,1.584 2.177,3.063 3.455,4.364c1.283,1.305 2.695,2.426 4.213,3.299c1.54,0.886 3.181,1.508 4.862,1.87c1.346,0.29 2.715,0.413 4.082,0.403c1.821,-0.014 3.646,-0.256 5.409,-0.81c0.882,-0.278 1.748,-0.633 2.584,-1.07c0.884,-0.463 1.734,-1.016 2.538,-1.655c1.401,-1.114 2.653,-2.485 3.739,-4.022c0.569,-0.805 1.093,-1.655 1.577,-2.537c0.222,-0.406 0.435,-0.818 0.641,-1.236l0.046,-0.094l0.573,-0.74l0.779,-0.381l0.841,0.048l0.745,0.469l0.512,0.801l0.181,0.986c0,1.785 -0.015,3.57 0.001,5.354c0.001,0.081 0.003,0.162 0.006,0.242c0.011,0.29 0.033,0.579 0.078,0.864c0.028,0.184 0.067,0.367 0.12,0.543c0.07,0.231 0.168,0.464 0.328,0.625c0.125,0.127 0.28,0.203 0.437,0.253c0.201,0.065 0.411,0.089 0.62,0.097l0.037,0.001l0.036,0.001c0.086,-0.009 0.172,-0.019 0.258,-0.029c0.96,-0.12 1.918,-0.265 2.877,-0.398c0.141,-0.018 0.281,-0.036 0.422,-0.052c1.575,-0.178 3.158,-0.228 4.74,-0.228c0.714,0 1.428,0.015 2.141,0.057c0.732,0.044 1.464,0.117 2.188,0.258l3.972,0.816c0.203,0 0.406,0.001 0.609,0c0.067,-0.002 0.067,-0.002 0.133,-0.004c0.148,-0.008 0.294,-0.021 0.441,-0.044c0.261,-0.041 0.52,-0.11 0.769,-0.212c0.199,-0.082 0.39,-0.185 0.573,-0.309c0.467,-0.317 0.862,-0.767 1.188,-1.275c0.337,-0.526 0.606,-1.11 0.809,-1.727c0.072,-0.222 0.137,-0.447 0.193,-0.676c0.076,-0.305 0.138,-0.614 0.187,-0.927c0.06,-0.374 0.102,-0.752 0.13,-1.132c0.034,-0.447 0.047,-0.897 0.045,-1.347c-0.002,-0.273 -0.01,-0.547 -0.026,-0.819c-0.013,-0.217 -0.031,-0.434 -0.056,-0.65c-0.02,-0.17 -0.043,-0.339 -0.072,-0.507c-0.022,-0.13 -0.047,-0.259 -0.076,-0.387c-0.022,-0.099 -0.046,-0.196 -0.073,-0.293c-0.141,-0.514 -0.355,-1.017 -0.696,-1.382c-0.074,-0.08 -0.154,-0.152 -0.238,-0.217c-0.195,-0.151 -0.412,-0.259 -0.635,-0.336c-0.385,-0.132 -0.788,-0.179 -1.187,-0.183c-0.221,-0.003 -0.442,0.005 -0.662,0.026c-0.207,0.019 -0.415,0.05 -0.615,0.116c-0.045,0.016 -0.088,0.034 -0.132,0.051c-0.077,0.03 -0.154,0.059 -0.232,0.088c-0.674,0.242 -1.371,0.426 -2.078,0.425c-0.336,0 -0.672,-0.057 -0.994,-0.174c-0.254,-0.092 -0.498,-0.221 -0.726,-0.382c-0.155,-0.109 -0.302,-0.233 -0.442,-0.37c-0.116,-0.115 -0.227,-0.238 -0.331,-0.369c-0.606,-0.764 -0.973,-1.75 -1.208,-2.754c-0.04,-0.168 -0.076,-0.338 -0.108,-0.508c-0.045,-0.234 -0.085,-0.469 -0.119,-0.706c-0.046,-0.311 -0.083,-0.624 -0.115,-0.937c-0.043,-0.438 -0.074,-0.878 -0.097,-1.318c-0.03,-0.596 -0.043,-1.193 -0.047,-1.79c-0.051,-21.556 0.044,-43.114 -0.001,-64.67c-0.004,-0.66 -0.025,-1.319 -0.086,-1.974c-0.027,-0.289 -0.062,-0.576 -0.108,-0.861c-0.04,-0.248 -0.089,-0.496 -0.153,-0.738c-0.042,-0.16 -0.091,-0.318 -0.15,-0.47c-0.044,-0.112 -0.094,-0.222 -0.156,-0.32c-0.1,-0.158 -0.241,-0.272 -0.387,-0.361c-0.242,-0.148 -0.507,-0.236 -0.771,-0.3c-0.552,-0.133 -1.117,-0.154 -1.678,-0.144c-0.481,0.008 -0.962,0.034 -1.442,0.065c-0.604,0.039 -1.208,0.088 -1.811,0.142c-0.476,0.043 -0.953,0.09 -1.429,0.133c-0.227,0.02 -0.455,0.039 -0.682,0.058c-0.686,0.055 -1.372,0.105 -2.059,0.136c-0.516,0.023 -1.033,0.037 -1.55,0.023c-0.728,-0.02 -1.455,-0.077 -2.18,-0.142c-0.954,-0.085 -1.907,-0.187 -2.86,-0.295c-0.282,-0.033 -0.564,-0.066 -0.846,-0.099c-0.141,-0.017 -0.282,-0.034 -0.422,-0.049c-0.1,-0.01 -0.2,-0.019 -0.299,-0.028c-0.482,-0.037 -0.965,-0.056 -1.448,-0.068c-0.567,-0.015 -1.134,-0.019 -1.702,-0.02c-0.074,0.001 -0.148,0.001 -0.222,0.002c-0.277,0.006 -0.554,0.02 -0.83,0.046c-0.22,0.021 -0.441,0.05 -0.66,0.088c-0.146,0.025 -0.292,0.054 -0.436,0.088c-0.136,0.032 -0.27,0.068 -0.404,0.108c-0.686,0.207 -1.36,0.538 -1.916,1.074c-0.087,0.084 -0.171,0.173 -0.252,0.267c-0.133,0.155 -0.255,0.322 -0.367,0.5c-0.42,0.669 -0.667,1.474 -0.809,2.288c-0.081,0.471 -0.129,0.949 -0.154,1.429c-0.033,0.65 -0.032,1.306 0.037,1.953c0.084,0.788 0.271,1.564 0.595,2.26c0.137,0.296 0.298,0.575 0.478,0.835c0.304,0.438 0.667,0.827 1.101,1.068c0.261,0.145 0.542,0.231 0.828,0.264c0.226,0.026 0.455,0.018 0.682,0.005c0.497,-0.028 0.991,-0.113 1.476,-0.247c0.215,-0.059 0.428,-0.13 0.639,-0.206l0.352,-0.087c0.543,-0.071 1.085,-0.14 1.628,-0.198c0.427,-0.045 0.855,-0.086 1.284,-0.097c0.089,-0.002 0.179,-0.001 0.268,0Zm-423.243,5.624c0.327,0.005 0.655,0.014 0.982,0.03c1.776,0.09 3.558,0.372 5.244,0.996c0.907,0.335 1.784,0.773 2.594,1.328c0.708,0.487 1.364,1.063 1.94,1.722c0.573,0.656 1.065,1.392 1.466,2.182c0.303,0.597 0.555,1.225 0.757,1.869c0.114,0.365 0.21,0.734 0.296,1.107c0.203,0.924 0.405,1.849 0.613,2.771c0.139,0.589 0.336,1.166 0.637,1.683c0.132,0.228 0.285,0.443 0.456,0.639c0.104,0.119 0.215,0.23 0.332,0.334c0.662,0.586 1.494,0.895 2.328,1.054c0.138,0.027 0.275,0.049 0.414,0.067c0.172,0.023 0.345,0.041 0.518,0.054c0.241,0.019 0.483,0.028 0.725,0.029c0.323,0.003 0.647,-0.007 0.969,-0.029c0.237,-0.017 0.473,-0.041 0.708,-0.075c0.187,-0.026 0.373,-0.059 0.557,-0.099c0.122,-0.026 0.243,-0.055 0.363,-0.088c0.728,-0.199 1.454,-0.534 1.981,-1.127c0.083,-0.093 0.16,-0.192 0.232,-0.296c0.434,-0.631 0.626,-1.417 0.704,-2.187c0.013,-0.133 0.023,-0.266 0.03,-0.399c0.01,-0.174 0.014,-0.348 0.014,-0.522c0,-0.25 0.003,-0.502 -0.002,-0.753c-0.003,-0.184 -0.011,-0.368 -0.021,-0.552c-0.022,-0.4 -0.054,-0.799 -0.091,-1.198c-0.044,-0.472 -0.097,-0.944 -0.146,-1.416c-0.016,-0.159 -0.032,-0.319 -0.047,-0.478c-0.068,-0.753 -0.129,-1.509 -0.134,-2.265c-0.002,-0.34 0.006,-0.679 0.017,-1.018c0.014,-0.412 0.035,-0.824 0.06,-1.235c0.049,-0.806 0.113,-1.611 0.185,-2.415c0.05,-0.555 0.105,-1.11 0.155,-1.666c0.023,-0.254 0.045,-0.508 0.066,-0.763c0.041,-0.506 0.079,-1.011 0.11,-1.518c0.02,-0.328 0.037,-0.656 0.049,-0.984c0.007,-0.198 0.013,-0.396 0.016,-0.594c0.003,-0.182 0.005,-0.363 0,-0.545c-0.004,-0.146 -0.012,-0.293 -0.024,-0.439c-0.056,-0.674 -0.207,-1.366 -0.568,-1.931c-0.052,-0.081 -0.108,-0.159 -0.168,-0.234c-0.418,-0.519 -1.009,-0.833 -1.61,-1.03c-0.103,-0.034 -0.206,-0.064 -0.311,-0.092c-0.135,-0.036 -0.272,-0.067 -0.409,-0.094c-0.175,-0.035 -0.351,-0.063 -0.528,-0.086c-0.223,-0.029 -0.447,-0.05 -0.671,-0.063c-0.278,-0.017 -0.555,-0.023 -0.833,-0.021c-0.39,0.003 -0.78,0.022 -1.168,0.07c-0.286,0.035 -0.571,0.085 -0.851,0.16c-0.198,0.053 -0.394,0.118 -0.583,0.203c-0.147,0.066 -0.29,0.144 -0.422,0.241c-0.091,0.067 -0.177,0.144 -0.251,0.234c-0.117,0.141 -0.206,0.307 -0.282,0.477c-0.12,0.265 -0.207,0.546 -0.278,0.83c-0.1,0.398 -0.168,0.804 -0.217,1.212c-0.069,0.562 -0.102,1.128 -0.119,1.694l-0.184,0.841l-0.475,0.697l-0.69,0.442l-0.797,0.117l-0.775,-0.226c-0.211,-0.177 -0.427,-0.348 -0.632,-0.533c-0.039,-0.035 -0.066,-0.083 -0.099,-0.124c-0.031,-0.04 -0.063,-0.079 -0.094,-0.118c-0.064,-0.078 -0.127,-0.156 -0.191,-0.233c-0.379,-0.454 -0.772,-0.894 -1.183,-1.314c-0.766,-0.782 -1.591,-1.498 -2.466,-2.134c-0.944,-0.686 -1.946,-1.277 -2.99,-1.768c-0.99,-0.465 -2.017,-0.84 -3.064,-1.13c-1.314,-0.364 -2.659,-0.595 -4.011,-0.717c-1.072,-0.096 -2.149,-0.123 -3.224,-0.096c-2.734,0.068 -5.474,0.503 -8.063,1.468c-1.364,0.508 -2.68,1.162 -3.916,1.962c-1.116,0.722 -2.164,1.56 -3.131,2.496c-0.74,0.716 -1.433,1.487 -2.066,2.312c-0.743,0.968 -1.403,2.01 -1.962,3.112c-0.561,1.105 -1.021,2.269 -1.378,3.468c-0.677,2.273 -0.984,4.659 -1.019,7.041c-0.009,0.665 0.002,1.33 0.041,1.993c0.06,1.006 0.182,2.007 0.377,2.993c0.202,1.02 0.482,2.022 0.844,2.99c0.371,0.988 0.827,1.937 1.362,2.834c0.761,1.277 1.68,2.441 2.705,3.481c0.569,0.578 1.172,1.115 1.797,1.621c0.468,0.38 0.946,0.744 1.438,1.087c0.794,0.556 1.62,1.062 2.473,1.508c0.837,0.439 1.7,0.821 2.582,1.142c0.526,0.192 1.059,0.36 1.596,0.51c2.609,0.679 5.217,1.356 7.825,2.039c1.825,0.481 3.645,0.988 5.446,1.566c0.722,0.231 1.441,0.475 2.155,0.737c0.603,0.222 1.202,0.458 1.792,0.717c0.412,0.182 0.819,0.375 1.217,0.589c0.407,0.218 0.805,0.458 1.179,0.738c0.566,0.424 1.072,0.937 1.497,1.521c0.452,0.623 0.807,1.322 1.067,2.06c0.3,0.851 0.476,1.751 0.555,2.656c0.096,1.101 0.08,2.219 -0.109,3.309c-0.175,1.008 -0.496,1.986 -0.961,2.882c-0.446,0.861 -1.019,1.64 -1.68,2.32c-0.869,0.895 -1.881,1.621 -2.973,2.162c-0.922,0.457 -1.898,0.782 -2.893,0.996c-0.835,0.18 -1.685,0.283 -2.536,0.325c-0.563,0.028 -1.127,0.028 -1.691,0.014c-0.54,-0.014 -1.079,-0.043 -1.617,-0.09c-0.401,-0.035 -0.801,-0.08 -1.199,-0.136c-0.331,-0.047 -0.66,-0.102 -0.988,-0.166c-1.774,-0.344 -3.523,-0.952 -5.067,-1.968c-0.225,-0.148 -0.445,-0.305 -0.659,-0.47c-0.309,-0.237 -0.605,-0.491 -0.888,-0.763c-0.402,-0.388 -0.775,-0.809 -1.114,-1.262c-0.474,-0.631 -0.878,-1.32 -1.209,-2.048c-0.381,-0.839 -0.664,-1.728 -0.86,-2.638c-0.057,-0.26 -0.106,-0.522 -0.148,-0.785c-0.038,-0.23 -0.069,-0.46 -0.104,-0.691c-0.023,-0.15 -0.047,-0.3 -0.072,-0.449c-0.129,-0.752 -0.28,-1.499 -0.479,-2.232c-0.13,-0.482 -0.281,-0.958 -0.464,-1.42c-0.14,-0.354 -0.3,-0.702 -0.492,-1.027c-0.152,-0.258 -0.325,-0.504 -0.533,-0.712c-0.333,-0.333 -0.746,-0.565 -1.169,-0.735c-0.334,-0.134 -0.679,-0.231 -1.028,-0.304c-0.335,-0.071 -0.673,-0.119 -1.012,-0.153c-0.433,-0.042 -0.868,-0.059 -1.303,-0.059c-0.199,0 -0.398,0.004 -0.596,0.014c-1.196,0.061 -2.405,0.316 -3.47,0.924c-0.185,0.106 -0.366,0.223 -0.539,0.349c-0.506,0.368 -0.972,0.822 -1.306,1.376c-0.139,0.23 -0.254,0.478 -0.34,0.737c-0.097,0.29 -0.159,0.593 -0.189,0.899c-0.025,0.239 -0.028,0.479 -0.024,0.719c0.003,0.192 0.01,0.383 0.019,0.575c0.021,0.437 0.051,0.872 0.086,1.308c0.063,0.788 0.145,1.574 0.221,2.361c0.018,0.198 0.037,0.396 0.054,0.595c0.045,0.521 0.087,1.042 0.119,1.564c0.035,0.578 0.056,1.158 0.048,1.737c-0.009,0.72 -0.049,1.44 -0.101,2.158c-0.065,0.897 -0.151,1.792 -0.248,2.686c-0.052,0.483 -0.109,0.964 -0.162,1.447c-0.017,0.166 -0.034,0.333 -0.051,0.501c-0.056,0.591 -0.104,1.183 -0.138,1.777c-0.027,0.461 -0.047,0.923 -0.058,1.385c-0.007,0.296 -0.011,0.591 -0.011,0.887c0,0.227 0.006,0.454 0.018,0.681c0.01,0.178 0.024,0.357 0.043,0.534c0.014,0.138 0.032,0.276 0.053,0.413c0.124,0.802 0.368,1.611 0.852,2.25c0.07,0.092 0.144,0.179 0.222,0.262c0.079,0.083 0.162,0.162 0.249,0.236c0.575,0.489 1.292,0.745 2.006,0.885c0.126,0.025 0.254,0.046 0.381,0.064c0.194,0.028 0.389,0.048 0.583,0.061c0.245,0.017 0.491,0.025 0.737,0.025c0.444,0 0.89,-0.029 1.33,-0.104c0.686,-0.117 1.381,-0.352 1.93,-0.826c0.085,-0.074 0.166,-0.153 0.242,-0.236c0.501,-0.55 0.774,-1.288 0.926,-2.029c0.024,-0.116 0.044,-0.232 0.063,-0.349c0.023,-0.151 0.043,-0.303 0.059,-0.455c0.02,-0.195 0.034,-0.391 0.045,-0.588l0.236,-0.9l0.567,-0.71l0.792,-0.387l0.87,0.008l0.787,0.401c0.135,0.113 0.271,0.226 0.407,0.337c0.135,0.11 0.27,0.219 0.405,0.327c0.356,0.283 0.716,0.56 1.08,0.83c0.792,0.586 1.604,1.139 2.438,1.653c2.026,1.248 4.18,2.262 6.428,2.947c1.588,0.485 3.22,0.805 4.866,0.945c0.469,0.04 0.94,0.065 1.41,0.077c0.42,0.01 0.841,0.008 1.261,-0.001c0.566,-0.011 1.131,-0.037 1.696,-0.079c2.058,-0.152 4.106,-0.513 6.087,-1.136c1.939,-0.609 3.808,-1.472 5.542,-2.588c1.391,-0.896 2.691,-1.951 3.882,-3.133c0.791,-0.785 1.534,-1.626 2.216,-2.521c0.717,-0.941 1.364,-1.943 1.931,-2.995c0.444,-0.826 0.838,-1.682 1.18,-2.562c0.384,-0.99 0.701,-2.008 0.953,-3.045c0.472,-1.946 0.715,-3.951 0.776,-5.959c0.057,-1.874 -0.037,-3.757 -0.365,-5.601c-0.192,-1.074 -0.463,-2.132 -0.823,-3.155c-0.381,-1.084 -0.865,-2.127 -1.446,-3.104c-0.582,-0.978 -1.262,-1.888 -2.019,-2.717c-0.965,-1.057 -2.052,-1.976 -3.202,-2.787c-1.277,-0.901 -2.633,-1.671 -4.023,-2.348c-1.416,-0.688 -2.87,-1.283 -4.344,-1.809c-1.744,-0.623 -3.517,-1.15 -5.303,-1.61c-0.808,-0.209 -1.619,-0.403 -2.433,-0.585c-0.621,-0.139 -1.243,-0.27 -1.865,-0.407c-0.324,-0.072 -0.649,-0.145 -0.973,-0.219c-1.145,-0.264 -2.287,-0.541 -3.423,-0.847c-0.903,-0.243 -1.802,-0.504 -2.69,-0.804c-0.569,-0.193 -1.134,-0.402 -1.685,-0.647c-0.479,-0.213 -0.95,-0.454 -1.383,-0.762c-0.425,-0.303 -0.812,-0.668 -1.146,-1.082c-0.496,-0.614 -0.87,-1.332 -1.128,-2.095c-0.211,-0.623 -0.346,-1.275 -0.424,-1.933c-0.057,-0.475 -0.083,-0.954 -0.088,-1.432c-0.005,-0.577 0.026,-1.153 0.105,-1.723c0.105,-0.764 0.296,-1.516 0.585,-2.224c0.207,-0.505 0.462,-0.987 0.763,-1.433c0.209,-0.309 0.439,-0.602 0.688,-0.874c0.432,-0.474 0.919,-0.887 1.442,-1.238c0.467,-0.314 0.961,-0.579 1.471,-0.801c1.146,-0.498 2.366,-0.784 3.591,-0.944c0.384,-0.05 0.77,-0.088 1.157,-0.115c0.51,-0.036 1.021,-0.052 1.532,-0.057c0.164,0 0.328,0.001 0.492,0.002Zm271.338,36.532c0.183,0.005 0.367,0.019 0.549,0.045c0.382,0.055 0.76,0.162 1.121,0.331c0.305,0.143 0.597,0.331 0.867,0.563c0.204,0.175 0.394,0.375 0.568,0.596c0.145,0.184 0.278,0.382 0.398,0.592c0.096,0.166 0.185,0.34 0.265,0.52c0.461,1.034 0.65,2.228 0.695,3.406c0.006,0.168 0.009,0.337 0.01,0.505c0.002,0.377 -0.009,0.754 -0.036,1.13c-0.034,0.477 -0.093,0.952 -0.179,1.42c-0.096,0.528 -0.226,1.046 -0.39,1.546c-0.314,0.962 -0.753,1.854 -1.286,2.643c-0.249,0.367 -0.517,0.714 -0.801,1.037c-0.519,0.592 -1.089,1.108 -1.7,1.533c-0.597,0.414 -1.231,0.74 -1.884,0.979c-1.114,0.405 -2.278,0.552 -3.433,0.512c-0.602,-0.021 -1.203,-0.094 -1.796,-0.228c-0.749,-0.168 -1.484,-0.431 -2.189,-0.796c-0.751,-0.389 -1.465,-0.891 -2.125,-1.493c-0.575,-0.524 -1.109,-1.122 -1.596,-1.775c-0.572,-0.767 -1.081,-1.608 -1.532,-2.497c-0.863,-1.701 -1.507,-3.572 -1.978,-5.505c-0.402,-1.65 -0.68,-3.346 -0.869,-5.056c-0.186,-1.689 -0.284,-3.393 -0.32,-5.097c-0.021,-1.012 -0.019,-2.025 -0.003,-3.036c0.038,-2.384 0.167,-4.769 0.434,-7.13c0.23,-2.023 0.56,-4.03 1.041,-5.981c0.386,-1.57 0.871,-3.104 1.482,-4.554c0.436,-1.035 0.936,-2.027 1.509,-2.946c0.774,-1.24 1.687,-2.342 2.729,-3.209c0.598,-0.498 1.235,-0.917 1.9,-1.248c0.612,-0.304 1.246,-0.534 1.892,-0.691c0.566,-0.138 1.141,-0.22 1.717,-0.253c0.338,-0.019 0.677,-0.02 1.015,-0.011c0.475,0.013 0.949,0.047 1.421,0.111c0.193,0.025 0.386,0.056 0.578,0.092c1.289,0.239 2.571,0.718 3.687,1.594c0.175,0.138 0.345,0.284 0.51,0.44c0.223,0.211 0.436,0.44 0.636,0.685c0.773,0.943 1.36,2.109 1.828,3.329c0.281,0.732 0.52,1.49 0.729,2.259c0.226,0.826 0.417,1.667 0.585,2.515c0.065,0.325 0.126,0.652 0.184,0.979c0.045,0.258 0.087,0.516 0.132,0.773c0.014,0.08 0.029,0.16 0.045,0.24c0.03,0.152 0.063,0.304 0.099,0.454c0.181,0.755 0.443,1.491 0.837,2.104c0.071,0.111 0.147,0.217 0.226,0.319c0.106,0.135 0.22,0.261 0.339,0.376c0.099,0.095 0.202,0.183 0.309,0.263c0.634,0.477 1.373,0.677 2.1,0.737c0.125,0.011 0.251,0.017 0.377,0.019c0.236,0.005 0.473,-0.002 0.709,-0.018c0.923,-0.066 1.85,-0.299 2.686,-0.817c0.127,-0.079 0.252,-0.164 0.373,-0.256c0.188,-0.142 0.369,-0.299 0.541,-0.47c0.225,-0.224 0.437,-0.471 0.622,-0.749c0.199,-0.297 0.367,-0.629 0.484,-0.99c0.125,-0.387 0.19,-0.802 0.204,-1.219c0.002,-0.063 0.004,-0.126 0.003,-0.188c-0.001,-0.105 -0.005,-0.211 -0.009,-0.316c-0.009,-0.259 -0.02,-0.519 -0.032,-0.778c-0.037,-0.863 -0.079,-1.726 -0.121,-2.59l0.012,0.074c-0.014,-0.09 -0.014,-0.089 -0.027,-0.179c-0.013,-0.091 -0.013,-0.091 -0.025,-0.182c-0.08,-0.652 -0.115,-1.31 -0.131,-1.97c-0.006,-0.245 -0.01,-0.49 -0.011,-0.735c-0.001,-0.226 -0.001,-0.451 0.004,-0.677c0.009,-0.382 0.028,-0.764 0.05,-1.145c0.023,-0.399 0.051,-0.797 0.082,-1.195c0.119,-1.546 0.277,-3.087 0.436,-4.627c0.03,-0.306 0.061,-0.613 0.09,-0.919c0.039,-0.412 0.077,-0.824 0.11,-1.237c0.023,-0.278 0.044,-0.557 0.06,-0.836c0.013,-0.216 0.025,-0.431 0.028,-0.648c0.004,-0.201 0,-0.403 -0.008,-0.604c-0.015,-0.365 -0.046,-0.729 -0.103,-1.087c-0.094,-0.596 -0.262,-1.187 -0.563,-1.665c-0.063,-0.1 -0.131,-0.194 -0.204,-0.282c-0.389,-0.466 -0.901,-0.725 -1.415,-0.872c-0.088,-0.025 -0.177,-0.047 -0.267,-0.066c-0.306,-0.066 -0.616,-0.1 -0.926,-0.112c-0.181,-0.007 -0.363,-0.009 -0.543,0.002c-0.494,0.03 -0.993,0.146 -1.44,0.424c-0.095,0.059 -0.187,0.125 -0.275,0.198c-0.126,0.104 -0.245,0.222 -0.355,0.353c-0.33,0.394 -0.575,0.889 -0.761,1.412c-0.269,0.759 -0.419,1.578 -0.519,2.398l-0.253,0.822l-0.504,0.605l-0.657,0.272l-0.686,-0.113l-0.582,-0.476c-0.06,-0.076 -0.119,-0.153 -0.179,-0.229c-0.059,-0.075 -0.118,-0.149 -0.178,-0.222c-0.236,-0.29 -0.476,-0.575 -0.722,-0.851c-0.481,-0.539 -0.982,-1.049 -1.503,-1.524c-1.206,-1.101 -2.517,-2.012 -3.899,-2.702c-1.456,-0.727 -2.984,-1.205 -4.534,-1.461c-0.717,-0.118 -1.44,-0.19 -2.162,-0.219c-0.407,-0.017 -0.813,-0.02 -1.219,-0.013c-1.716,0.032 -3.432,0.256 -5.108,0.733c-0.831,0.236 -1.652,0.533 -2.455,0.896c-0.872,0.394 -1.722,0.865 -2.541,1.413c-1.292,0.863 -2.503,1.917 -3.611,3.126c-1.326,1.447 -2.502,3.113 -3.528,4.912c-0.504,0.883 -0.972,1.8 -1.403,2.745c-0.302,0.662 -0.586,1.338 -0.853,2.025c-1.459,3.767 -2.373,7.849 -2.898,11.99c-0.083,0.657 -0.157,1.317 -0.221,1.977c-0.075,0.766 -0.138,1.533 -0.19,2.301c-0.065,0.972 -0.113,1.946 -0.144,2.921c-0.027,0.826 -0.042,1.652 -0.047,2.479c-0.012,2.026 0.046,4.052 0.194,6.069c0.272,3.721 0.849,7.414 1.82,10.943c0.291,1.056 0.616,2.097 0.977,3.117c0.282,0.795 0.582,1.58 0.92,2.339c0.438,0.983 0.932,1.925 1.476,2.816c0.76,1.243 1.618,2.387 2.549,3.421c0.917,1.017 1.903,1.929 2.935,2.743c1.63,1.286 3.375,2.339 5.2,3.088c1.02,0.419 2.065,0.743 3.122,0.968c1.068,0.226 2.148,0.352 3.23,0.38c1.206,0.032 2.414,-0.055 3.607,-0.282c1.373,-0.262 2.724,-0.708 4.021,-1.34c1.241,-0.604 2.431,-1.377 3.551,-2.289c0.395,-0.322 0.782,-0.661 1.16,-1.016c0.238,-0.224 0.472,-0.454 0.703,-0.689l0.52,-0.348c0.194,-0.028 0.388,-0.102 0.583,-0.083c0.397,0.039 0.767,0.268 1.038,0.641c0.133,0.183 0.24,0.402 0.311,0.635c0.146,0.474 0.107,0.967 0.11,1.458c0.001,0.06 0.002,0.119 0.004,0.178c0.017,0.418 0.07,0.838 0.207,1.221c0.043,0.121 0.094,0.237 0.154,0.346c0.249,0.456 0.629,0.761 1.025,0.973c0.072,0.039 0.145,0.075 0.219,0.108c0.097,0.044 0.195,0.084 0.294,0.12c0.109,0.039 0.218,0.074 0.329,0.106c0.14,0.04 0.282,0.074 0.425,0.104c0.203,0.042 0.408,0.074 0.613,0.098c0.256,0.03 0.512,0.049 0.769,0.058c0.338,0.012 0.676,0.011 1.013,-0.012c0.442,-0.029 0.883,-0.094 1.315,-0.215c0.551,-0.155 1.098,-0.405 1.561,-0.827c0.175,-0.16 0.335,-0.344 0.476,-0.551c0.178,-0.26 0.325,-0.555 0.439,-0.869c0.15,-0.417 0.25,-0.859 0.314,-1.311c0.051,-0.362 0.08,-0.729 0.093,-1.096c0.009,-0.248 0.008,-0.496 0.008,-0.745c-0.001,-0.274 -0.003,-0.547 -0.005,-0.821c-0.004,-0.373 -0.009,-0.746 -0.016,-1.119c-0.013,-0.677 -0.031,-1.352 -0.053,-2.028c-0.062,-1.775 -0.129,-3.549 -0.194,-5.324c-0.026,-0.763 -0.047,-1.527 -0.06,-2.291c-0.008,-0.459 -0.013,-0.918 -0.016,-1.378c-0.001,-0.323 -0.003,-0.646 0.003,-0.969c0.005,-0.275 0.016,-0.55 0.033,-0.825c0.013,-0.21 0.03,-0.421 0.052,-0.63c0.107,-1.047 0.33,-2.099 0.778,-2.996c0.062,-0.124 0.128,-0.244 0.198,-0.361c0.083,-0.137 0.172,-0.268 0.266,-0.392c0.164,-0.217 0.345,-0.412 0.54,-0.581c0.26,-0.225 0.545,-0.403 0.844,-0.528c0.257,-0.107 0.524,-0.176 0.793,-0.209c0.13,-0.016 0.26,-0.023 0.39,-0.024l0.141,0.007l1.995,0.212c0.035,-0.001 0.07,-0.003 0.105,-0.006c0.181,-0.019 0.358,-0.066 0.528,-0.152c0.312,-0.159 0.577,-0.437 0.8,-0.755c0.108,-0.155 0.208,-0.321 0.3,-0.492c0.135,-0.251 0.253,-0.517 0.353,-0.792c0.345,-0.944 0.482,-1.99 0.501,-3.025c0.02,-1.085 -0.084,-2.201 -0.444,-3.195c-0.052,-0.142 -0.108,-0.281 -0.17,-0.416c-0.104,-0.228 -0.223,-0.445 -0.355,-0.649c-0.19,-0.293 -0.407,-0.56 -0.644,-0.792c-0.177,-0.174 -0.366,-0.327 -0.564,-0.459c-0.663,-0.441 -1.411,-0.622 -2.154,-0.65c-0.248,-0.009 -0.495,0.002 -0.743,0.021c-0.19,0.014 -0.38,0.032 -0.57,0.053c-0.464,0.05 -0.926,0.112 -1.389,0.179c-0.515,0.074 -1.03,0.158 -1.545,0.237c-0.145,0.021 -0.289,0.043 -0.434,0.064c-1.363,0.192 -2.73,0.335 -4.101,0.398c-0.381,0.018 -0.763,0.029 -1.144,0.034c-0.307,0.003 -0.613,0.003 -0.919,-0.008c-0.643,-0.023 -1.286,-0.079 -1.927,-0.149c-0.798,-0.087 -1.594,-0.197 -2.389,-0.319c-0.522,-0.081 -1.042,-0.169 -1.564,-0.251c-0.209,-0.033 -0.418,-0.065 -0.627,-0.096c-0.615,-0.09 -1.23,-0.175 -1.846,-0.243c-0.354,-0.039 -0.709,-0.073 -1.063,-0.099c-0.252,-0.019 -0.503,-0.033 -0.755,-0.04c-0.315,-0.009 -0.63,-0.006 -0.945,0.027c-0.368,0.04 -0.735,0.117 -1.091,0.245c-0.413,0.149 -0.812,0.368 -1.174,0.664c-0.219,0.179 -0.425,0.385 -0.614,0.614c-0.211,0.256 -0.399,0.543 -0.555,0.857c-0.228,0.46 -0.381,0.973 -0.469,1.504c-0.084,0.509 -0.11,1.032 -0.1,1.552c0.015,0.719 0.104,1.441 0.312,2.112c0.161,0.516 0.391,0.994 0.681,1.408c0.198,0.282 0.427,0.535 0.692,0.709c0.196,0.129 0.409,0.21 0.628,0.241c0.05,0.008 0.1,0.013 0.151,0.015c0.02,0.001 0.044,0.004 0.064,0.002c0.056,-0.004 0.112,-0.012 0.167,-0.02c0.123,-0.016 0.245,-0.033 0.367,-0.052c0.285,-0.042 0.569,-0.087 0.854,-0.132c0.058,-0.005 0.117,-0.011 0.175,-0.015c0.018,-0.002 0.035,-0.002 0.052,-0.004c0.066,-0.01 0.131,-0.029 0.195,-0.049l0.376,-0.058c0.213,0 0.427,-0.002 0.641,0.002Zm-213.846,-27.033c-0.775,0.006 -1.55,0.028 -2.324,0.076c-1.558,0.096 -3.113,0.289 -4.643,0.603c-1.504,0.309 -2.986,0.737 -4.414,1.306c-1.525,0.607 -2.986,1.374 -4.338,2.305c-1.038,0.715 -2.011,1.523 -2.905,2.412c-0.868,0.863 -1.662,1.8 -2.374,2.796c-0.479,0.671 -0.92,1.368 -1.322,2.088c-0.282,0.505 -0.546,1.02 -0.79,1.544c-0.182,0.389 -0.353,0.782 -0.514,1.18c-1.195,2.95 -1.83,6.105 -2.097,9.27c-0.044,0.523 -0.079,1.047 -0.104,1.572c-0.035,0.747 -0.052,1.496 -0.052,2.245c0,0.754 0.017,1.509 0.053,2.262c0.025,0.528 0.059,1.056 0.104,1.583c0.278,3.286 0.95,6.563 2.237,9.609c0.187,0.443 0.387,0.88 0.6,1.31c0.278,0.563 0.578,1.114 0.901,1.651c0.475,0.791 0.999,1.552 1.57,2.276c0.756,0.958 1.593,1.853 2.501,2.668c0.79,0.709 1.635,1.357 2.524,1.938c0.6,0.392 1.221,0.753 1.857,1.084c0.464,0.241 0.937,0.466 1.416,0.675c2.968,1.291 6.178,1.954 9.394,2.211c0.451,0.036 0.903,0.064 1.355,0.084c0.667,0.031 1.336,0.045 2.004,0.045c3.394,0 6.818,-0.415 10.039,-1.519c0.449,-0.154 0.894,-0.321 1.333,-0.502c0.525,-0.216 1.042,-0.452 1.549,-0.708c0.815,-0.411 1.603,-0.873 2.358,-1.385c1.087,-0.737 2.103,-1.578 3.034,-2.504c0.839,-0.835 1.611,-1.739 2.307,-2.697c0.489,-0.674 0.941,-1.376 1.354,-2.099c0.29,-0.508 0.56,-1.026 0.813,-1.553c0.186,-0.391 0.363,-0.786 0.53,-1.186c1.26,-3.024 1.939,-6.264 2.238,-9.518c0.049,-0.528 0.087,-1.057 0.117,-1.587c0.045,-0.825 0.068,-1.651 0.072,-2.478c0.002,-0.533 -0.005,-1.067 -0.021,-1.601c-0.113,-3.586 -0.679,-7.189 -1.974,-10.548c-0.21,-0.545 -0.439,-1.083 -0.688,-1.612c-0.31,-0.659 -0.65,-1.303 -1.02,-1.93c-0.547,-0.926 -1.161,-1.813 -1.836,-2.651c-0.932,-1.156 -1.981,-2.221 -3.124,-3.171c-1.292,-1.073 -2.709,-1.993 -4.211,-2.745c-1.571,-0.787 -3.232,-1.387 -4.934,-1.823c-1.809,-0.463 -3.664,-0.741 -5.526,-0.876c-0.884,-0.064 -1.77,-0.094 -2.656,-0.1c-0.131,0 -0.262,0 -0.393,0Zm269.565,0c-0.775,0.006 -1.549,0.028 -2.323,0.076c-1.559,0.096 -3.113,0.289 -4.643,0.603c-1.505,0.309 -2.987,0.737 -4.414,1.306c-1.525,0.607 -2.986,1.374 -4.339,2.305c-1.038,0.715 -2.01,1.523 -2.904,2.412c-0.868,0.863 -1.663,1.799 -2.374,2.796c-0.479,0.671 -0.92,1.368 -1.323,2.088c-0.282,0.505 -0.545,1.02 -0.79,1.544c-1.529,3.277 -2.308,6.86 -2.611,10.45c-0.044,0.523 -0.078,1.047 -0.103,1.572c-0.036,0.747 -0.052,1.496 -0.052,2.245c0,0.754 0.017,1.509 0.052,2.262c0.028,0.593 0.068,1.186 0.121,1.777c0.288,3.221 0.959,6.429 2.221,9.415c0.187,0.443 0.386,0.88 0.599,1.31c0.278,0.562 0.578,1.113 0.901,1.651c0.475,0.791 1,1.552 1.571,2.276c0.755,0.958 1.593,1.853 2.501,2.668c0.79,0.709 1.635,1.357 2.523,1.938c0.6,0.392 1.221,0.753 1.857,1.084c0.465,0.241 0.937,0.466 1.417,0.675c2.968,1.291 6.177,1.954 9.394,2.211c0.451,0.036 0.902,0.064 1.354,0.084c0.668,0.031 1.336,0.045 2.004,0.045c3.394,0 6.818,-0.416 10.039,-1.519c0.45,-0.154 0.894,-0.321 1.333,-0.502c0.525,-0.216 1.043,-0.452 1.55,-0.708c0.814,-0.411 1.602,-0.873 2.357,-1.385c1.088,-0.737 2.103,-1.578 3.034,-2.504c0.84,-0.835 1.612,-1.739 2.307,-2.697c0.49,-0.674 0.941,-1.376 1.355,-2.099c0.289,-0.508 0.56,-1.026 0.812,-1.553c0.187,-0.39 0.363,-0.786 0.53,-1.186c1.26,-3.024 1.94,-6.264 2.239,-9.518c0.048,-0.528 0.087,-1.057 0.116,-1.587c0.046,-0.825 0.069,-1.651 0.072,-2.478c0.002,-0.533 -0.004,-1.067 -0.021,-1.601c-0.113,-3.586 -0.678,-7.189 -1.973,-10.548c-0.21,-0.545 -0.44,-1.083 -0.688,-1.612c-0.31,-0.659 -0.65,-1.303 -1.021,-1.93c-0.547,-0.926 -1.161,-1.813 -1.836,-2.651c-0.932,-1.157 -1.98,-2.222 -3.123,-3.171c-1.293,-1.073 -2.709,-1.994 -4.211,-2.745c-1.572,-0.787 -3.233,-1.387 -4.934,-1.823c-1.81,-0.463 -3.665,-0.741 -5.527,-0.876c-0.884,-0.064 -1.769,-0.094 -2.655,-0.1c-0.131,0 -0.263,0 -0.394,0Zm-235.384,-5.602c0.11,0.008 0.219,0.018 0.328,0.036c0.191,0.032 0.38,0.083 0.562,0.153c0.204,0.078 0.4,0.179 0.583,0.3c0.132,0.088 0.257,0.185 0.375,0.291c0.093,0.085 0.182,0.175 0.266,0.269c0.558,0.628 0.88,1.434 1.086,2.246c0.034,0.134 0.065,0.269 0.093,0.404c0.039,0.187 0.073,0.375 0.103,0.563c0.044,0.274 0.08,0.55 0.11,0.827c0.041,0.382 0.07,0.765 0.091,1.149c0.03,0.552 0.043,1.104 0.047,1.656c0.028,12.08 0.028,24.16 0,36.239c-0.004,0.553 -0.017,1.105 -0.047,1.656c-0.021,0.384 -0.05,0.768 -0.091,1.15c-0.03,0.277 -0.066,0.552 -0.11,0.827c-0.03,0.188 -0.064,0.376 -0.103,0.562c-0.028,0.136 -0.059,0.27 -0.093,0.404c-0.212,0.837 -0.548,1.669 -1.137,2.303c-0.086,0.093 -0.178,0.182 -0.274,0.264c-0.121,0.104 -0.249,0.199 -0.383,0.283c-0.188,0.117 -0.388,0.214 -0.596,0.286c-0.286,0.1 -0.586,0.154 -0.889,0.163c-0.28,0.007 -0.562,-0.019 -0.839,-0.062c-0.42,-0.065 -0.834,-0.172 -1.24,-0.298c-0.198,-0.062 -0.394,-0.131 -0.592,-0.194c-0.078,-0.024 -0.157,-0.048 -0.236,-0.071c-0.115,-0.032 -0.23,-0.062 -0.347,-0.086c-0.084,-0.017 -0.169,-0.033 -0.255,-0.04c-0.054,-0.004 -0.109,-0.002 -0.163,-0.001c-0.116,0.002 -0.231,0.008 -0.347,0.017c-0.324,0.025 -0.649,0.079 -0.958,0.185c-0.229,0.078 -0.448,0.187 -0.641,0.336c-0.06,0.047 -0.118,0.098 -0.173,0.153c-0.351,0.351 -0.55,0.831 -0.675,1.309c-0.023,0.088 -0.043,0.176 -0.062,0.265c-0.028,0.136 -0.051,0.274 -0.071,0.412c-0.024,0.176 -0.042,0.354 -0.055,0.531c-0.017,0.224 -0.024,0.448 -0.026,0.673c-0.006,0.921 0.113,1.86 0.485,2.706c0.054,0.124 0.114,0.245 0.179,0.363c0.091,0.166 0.192,0.325 0.303,0.478c0.167,0.229 0.356,0.443 0.563,0.636c0.303,0.282 0.647,0.516 1.023,0.684c0.458,0.205 0.953,0.31 1.45,0.344c0.146,0.01 0.292,0.015 0.438,0.013c0.164,-0.002 0.327,-0.011 0.49,-0.022c0.255,-0.016 0.51,-0.036 0.765,-0.059c0.681,-0.06 1.362,-0.132 2.042,-0.209c0.483,-0.055 0.967,-0.111 1.45,-0.169c0.347,-0.041 0.695,-0.084 1.042,-0.124c0.169,-0.019 0.337,-0.037 0.505,-0.055c0.972,-0.098 1.947,-0.169 2.923,-0.202c0.819,-0.027 1.638,-0.025 2.457,-0.01c1.213,0.021 2.425,0.078 3.635,0.172c0.155,0.013 0.311,0.027 0.466,0.039c1.149,0.095 2.299,0.188 3.448,0.282c1.329,0.109 2.659,0.217 3.988,0.323c0.147,0.011 0.295,0.023 0.442,0.034c0.488,-0.003 0.979,-0.047 1.454,-0.163c0.362,-0.088 0.716,-0.221 1.036,-0.418c0.148,-0.091 0.288,-0.196 0.417,-0.314c0.512,-0.47 0.819,-1.124 1.007,-1.791c0.026,-0.089 0.049,-0.179 0.07,-0.269c0.029,-0.12 0.054,-0.241 0.077,-0.363c0.034,-0.184 0.062,-0.37 0.085,-0.556c0.028,-0.235 0.048,-0.47 0.062,-0.706c0.014,-0.26 0.021,-0.52 0.021,-0.78c0,-0.21 -0.006,-0.419 -0.019,-0.628c-0.01,-0.165 -0.025,-0.33 -0.046,-0.494c-0.016,-0.129 -0.036,-0.257 -0.06,-0.384c-0.019,-0.098 -0.04,-0.195 -0.065,-0.292c-0.018,-0.073 -0.038,-0.145 -0.061,-0.217c-0.127,-0.41 -0.326,-0.816 -0.667,-1.081c-0.131,-0.102 -0.279,-0.18 -0.433,-0.24c-0.151,-0.058 -0.309,-0.099 -0.468,-0.129c-0.26,-0.048 -0.525,-0.065 -0.79,-0.066c-0.156,0 -0.313,0.005 -0.47,0.016c-0.148,0.011 -0.298,0.028 -0.444,0.06c-0.086,0.019 -0.169,0.048 -0.253,0.075c-0.064,0.02 -0.128,0.039 -0.192,0.057c-0.172,0.045 -0.344,0.085 -0.518,0.116c-0.422,0.076 -0.851,0.108 -1.279,0.107c-0.371,-0.001 -0.742,-0.06 -1.095,-0.18c-0.24,-0.082 -0.471,-0.191 -0.688,-0.326c-0.169,-0.106 -0.329,-0.226 -0.479,-0.359c-0.108,-0.096 -0.211,-0.2 -0.308,-0.308c-0.655,-0.735 -1.013,-1.692 -1.223,-2.651c-0.035,-0.162 -0.067,-0.325 -0.095,-0.488c-0.037,-0.219 -0.068,-0.438 -0.095,-0.658c-0.037,-0.312 -0.064,-0.624 -0.084,-0.937c-0.029,-0.453 -0.041,-0.908 -0.045,-1.362c-0.056,-17.064 0.151,-34.129 -0.002,-51.193c-0.003,-0.239 -0.015,-0.478 -0.045,-0.716c-0.019,-0.147 -0.044,-0.293 -0.08,-0.437c-0.021,-0.082 -0.045,-0.163 -0.075,-0.242c-0.016,-0.043 -0.034,-0.085 -0.054,-0.126c-0.014,-0.029 -0.029,-0.057 -0.047,-0.085c-0.022,-0.035 -0.048,-0.07 -0.079,-0.097c-0.058,-0.048 -0.135,-0.069 -0.206,-0.084c-0.053,-0.012 -0.106,-0.019 -0.16,-0.024c-0.083,-0.007 -0.166,-0.008 -0.249,-0.007c-0.134,0.001 -0.268,0.004 -0.402,0.01c-0.293,0.011 -0.586,0.03 -0.879,0.054c-0.676,0.055 -1.351,0.134 -2.024,0.222l-0.05,0.007c-0.052,0.012 -0.104,0.023 -0.156,0.035c-0.133,0.029 -0.133,0.029 -0.266,0.056c-0.273,0.054 -0.546,0.103 -0.821,0.144c-0.783,0.117 -1.573,0.181 -2.363,0.209c-0.448,0.016 -0.897,0.021 -1.345,0.012c-0.667,-0.014 -1.334,-0.056 -2,-0.11c-0.775,-0.062 -1.55,-0.141 -2.323,-0.228c-0.507,-0.057 -1.013,-0.119 -1.52,-0.177c-0.194,-0.021 -0.388,-0.043 -0.583,-0.064c-0.426,-0.045 -0.853,-0.089 -1.28,-0.124c-0.162,-0.013 -0.324,-0.025 -0.487,-0.034c-0.116,-0.007 -0.232,-0.013 -0.348,-0.012c-0.783,0.001 -1.58,0.118 -2.289,0.473c-0.107,0.054 -0.213,0.113 -0.315,0.178c-0.219,0.138 -0.424,0.301 -0.611,0.483c-0.234,0.227 -0.44,0.484 -0.613,0.762c-0.494,0.793 -0.7,1.736 -0.757,2.665c-0.01,0.166 -0.015,0.332 -0.017,0.498c-0.004,0.468 0.019,0.939 0.088,1.402c0.02,0.133 0.043,0.265 0.072,0.396c0.018,0.085 0.039,0.169 0.062,0.253c0.13,0.481 0.343,0.965 0.719,1.297c0.367,0.324 0.85,0.472 1.322,0.54c0.084,0.012 0.169,0.022 0.253,0.03c0.11,0.009 0.221,0.015 0.332,0.019c0.23,0.006 0.46,0.002 0.69,-0.017c0.17,-0.014 0.344,-0.034 0.509,-0.083c0.046,-0.015 0.093,-0.034 0.138,-0.05c0.075,-0.026 0.091,-0.032 0.166,-0.058c0.548,-0.185 1.108,-0.337 1.682,-0.403c0.19,-0.021 0.381,-0.031 0.571,-0.033c0.078,0.001 0.078,0.001 0.155,0.004Zm322.096,15.212c0.439,0.005 0.878,0.03 1.315,0.083c0.821,0.1 1.634,0.291 2.421,0.585c0.69,0.256 1.359,0.59 1.995,0.998c0.371,0.238 0.731,0.5 1.079,0.785c1.149,0.944 2.146,2.132 2.987,3.46c0.987,1.56 1.762,3.303 2.332,5.136c0.959,3.081 1.345,6.384 1.393,9.661c0.011,0.72 0.005,1.441 -0.016,2.161c-0.014,0.472 -0.035,0.943 -0.063,1.414c-0.198,3.259 -0.766,6.518 -1.922,9.491c-0.184,0.472 -0.382,0.936 -0.595,1.39c-0.291,0.621 -0.609,1.223 -0.954,1.802c-0.409,0.687 -0.855,1.342 -1.34,1.954c-0.593,0.748 -1.246,1.429 -1.953,2.017c-0.643,0.535 -1.331,0.991 -2.052,1.357c-0.721,0.366 -1.474,0.64 -2.242,0.823c-0.632,0.149 -1.274,0.237 -1.918,0.269c-1.011,0.05 -2.027,-0.035 -3.016,-0.294c-0.651,-0.171 -1.289,-0.416 -1.899,-0.736c-0.559,-0.292 -1.094,-0.647 -1.599,-1.056c-0.231,-0.187 -0.455,-0.385 -0.673,-0.594c-0.874,-0.839 -1.632,-1.841 -2.278,-2.935c-0.384,-0.649 -0.73,-1.331 -1.037,-2.037c-0.157,-0.36 -0.305,-0.727 -0.443,-1.099c-0.166,-0.448 -0.318,-0.903 -0.458,-1.364c-0.429,-1.42 -0.736,-2.89 -0.949,-4.378c-0.301,-2.094 -0.415,-4.22 -0.418,-6.343l0,-1.9c0.016,-0.386 0.035,-0.772 0.059,-1.157c0.051,-0.84 0.122,-1.678 0.215,-2.513c0.111,-0.999 0.255,-1.992 0.438,-2.975c0.145,-0.778 0.314,-1.549 0.512,-2.31c0.162,-0.622 0.342,-1.237 0.544,-1.841c0.161,-0.484 0.335,-0.962 0.524,-1.431c0.159,-0.394 0.327,-0.781 0.506,-1.162c0.147,-0.313 0.301,-0.621 0.462,-0.923c0.922,-1.731 2.088,-3.299 3.527,-4.432c0.291,-0.23 0.593,-0.442 0.903,-0.633c0.499,-0.307 1.021,-0.561 1.558,-0.758c0.566,-0.208 1.148,-0.351 1.736,-0.432c0.324,-0.045 0.651,-0.07 0.977,-0.08c0.114,-0.003 0.228,-0.004 0.342,-0.003Zm-231.261,32.23l0.455,0.789l0.162,0.969c0,1.355 -0.016,2.71 0.001,4.064c0.001,0.08 0.004,0.159 0.007,0.239c0.008,0.143 0.019,0.286 0.038,0.428c0.011,0.081 0.025,0.162 0.042,0.242c0.011,0.052 0.024,0.104 0.04,0.155c0.013,0.044 0.029,0.088 0.048,0.129c0.013,0.026 0.027,0.052 0.046,0.071c0.026,0.026 0.057,0.043 0.088,0.057c0.025,0.011 0.05,0.02 0.076,0.028c0.037,0.011 0.075,0.02 0.113,0.026c0.068,0.013 0.138,0.018 0.207,0.019c0.081,-0.009 0.161,-0.02 0.241,-0.031c0.621,-0.088 1.24,-0.191 1.86,-0.286c0.098,-0.014 0.196,-0.027 0.294,-0.04c1.084,-0.136 2.174,-0.174 3.263,-0.174c0.46,0 0.92,0.01 1.38,0.038c0.546,0.033 1.093,0.09 1.633,0.207l2.669,0.606c0.124,0 0.249,0 0.374,-0.001c0.04,-0.001 0.079,-0.002 0.119,-0.004c0.236,-0.018 0.471,-0.068 0.695,-0.175c0.119,-0.057 0.234,-0.13 0.343,-0.217c0.248,-0.2 0.458,-0.474 0.634,-0.779c0.135,-0.231 0.252,-0.481 0.351,-0.742c0.053,-0.138 0.1,-0.28 0.143,-0.424c0.051,-0.171 0.095,-0.347 0.134,-0.524c0.046,-0.215 0.083,-0.433 0.113,-0.653c0.037,-0.266 0.062,-0.535 0.078,-0.805c0.019,-0.317 0.027,-0.635 0.023,-0.953c-0.003,-0.323 -0.018,-0.646 -0.051,-0.966c-0.029,-0.282 -0.073,-0.562 -0.142,-0.832c-0.078,-0.3 -0.191,-0.601 -0.38,-0.805c-0.09,-0.097 -0.195,-0.168 -0.303,-0.22c-0.139,-0.067 -0.285,-0.106 -0.432,-0.13c-0.183,-0.03 -0.369,-0.034 -0.554,-0.027c-0.17,0.005 -0.342,0.019 -0.509,0.066c-0.044,0.012 -0.087,0.031 -0.13,0.05c-0.054,0.023 -0.109,0.046 -0.164,0.068c-0.055,0.022 -0.11,0.044 -0.165,0.064c-0.464,0.171 -0.945,0.294 -1.429,0.28c-0.291,-0.009 -0.581,-0.077 -0.856,-0.206c-0.199,-0.094 -0.389,-0.219 -0.566,-0.372c-0.121,-0.104 -0.235,-0.22 -0.341,-0.347c-0.088,-0.104 -0.171,-0.215 -0.248,-0.331c-0.509,-0.764 -0.783,-1.747 -0.943,-2.729c-0.027,-0.164 -0.05,-0.328 -0.071,-0.493c-0.032,-0.245 -0.057,-0.492 -0.079,-0.739c-0.027,-0.315 -0.047,-0.631 -0.061,-0.947c-0.021,-0.458 -0.03,-0.917 -0.033,-1.376c-0.033,-16.242 0.087,-32.484 -0.001,-48.726c-0.004,-0.401 -0.016,-0.801 -0.045,-1.199c-0.017,-0.231 -0.04,-0.461 -0.072,-0.688c-0.02,-0.145 -0.044,-0.29 -0.074,-0.432c-0.015,-0.073 -0.032,-0.147 -0.052,-0.219c-0.012,-0.047 -0.026,-0.093 -0.041,-0.139c-0.009,-0.028 -0.019,-0.056 -0.029,-0.083c-0.015,-0.039 -0.031,-0.08 -0.052,-0.113c-0.028,-0.043 -0.068,-0.074 -0.106,-0.1c-0.022,-0.015 -0.045,-0.03 -0.068,-0.043c-0.042,-0.024 -0.086,-0.045 -0.13,-0.064c-0.067,-0.028 -0.136,-0.051 -0.205,-0.07c-0.112,-0.032 -0.226,-0.054 -0.34,-0.07c-0.209,-0.03 -0.42,-0.039 -0.631,-0.038c-0.359,0.003 -0.718,0.024 -1.077,0.05c-0.732,0.053 -1.463,0.133 -2.195,0.206c-0.156,0.015 -0.311,0.03 -0.467,0.045c-0.471,0.041 -0.942,0.079 -1.413,0.102c-0.391,0.019 -0.782,0.03 -1.174,0.015c-0.517,-0.02 -1.034,-0.067 -1.55,-0.119c-0.605,-0.061 -1.209,-0.133 -1.812,-0.209c-0.127,-0.016 -0.254,-0.033 -0.381,-0.049c-0.175,-0.023 -0.349,-0.048 -0.524,-0.067c-0.049,-0.005 -0.098,-0.01 -0.148,-0.015c-0.379,-0.031 -0.759,-0.046 -1.14,-0.055c-0.255,-0.006 -0.511,-0.009 -0.767,-0.01c-0.188,0 -0.375,-0.001 -0.563,0.009c-0.172,0.008 -0.345,0.024 -0.517,0.048c-0.117,0.017 -0.233,0.037 -0.349,0.062c-0.09,0.02 -0.179,0.042 -0.267,0.068c-0.553,0.159 -1.11,0.449 -1.504,1.006c-0.303,0.428 -0.483,0.98 -0.587,1.545c-0.063,0.336 -0.1,0.68 -0.121,1.025c-0.011,0.189 -0.018,0.378 -0.02,0.567c-0.004,0.301 0.003,0.603 0.03,0.903c0.047,0.529 0.154,1.051 0.346,1.521c0.069,0.169 0.148,0.331 0.237,0.483c0.172,0.293 0.379,0.566 0.632,0.734c0.145,0.096 0.303,0.152 0.465,0.173c0.134,0.017 0.27,0.01 0.404,0.002c0.297,-0.019 0.592,-0.073 0.882,-0.158c0.154,-0.045 0.306,-0.1 0.457,-0.161l0.314,-0.085c0.458,-0.067 0.916,-0.131 1.375,-0.179c0.28,-0.029 0.562,-0.055 0.843,-0.046c0.222,0.007 0.445,0.036 0.663,0.092c0.316,0.079 0.623,0.213 0.91,0.403c0.228,0.152 0.443,0.338 0.639,0.555c0.153,0.169 0.294,0.356 0.422,0.559c0.102,0.161 0.195,0.332 0.28,0.51c0.074,0.155 0.142,0.316 0.203,0.481c0.323,0.875 0.463,1.85 0.506,2.816c0.01,0.235 0.014,0.469 0.015,0.704l0,7.659c-0.11,0.75 -0.066,1.024 -0.491,1.604c-0.315,0.429 -0.744,0.679 -1.195,0.696c-0.222,0.009 -0.449,-0.041 -0.657,-0.144c-0.207,-0.103 -0.381,-0.3 -0.567,-0.46c-0.029,-0.026 -0.051,-0.063 -0.077,-0.095c-0.067,-0.08 -0.082,-0.098 -0.149,-0.178c-0.074,-0.088 -0.149,-0.175 -0.224,-0.262c-0.667,-0.767 -1.369,-1.481 -2.112,-2.116c-1.063,-0.909 -2.207,-1.653 -3.412,-2.17c-0.916,-0.393 -1.866,-0.651 -2.825,-0.769c-0.702,-0.086 -1.408,-0.094 -2.112,-0.049c-1.386,0.089 -2.766,0.407 -4.078,1.013c-0.678,0.312 -1.335,0.701 -1.963,1.161c-0.549,0.403 -1.075,0.861 -1.574,1.366c-0.899,0.91 -1.707,1.971 -2.425,3.128c-0.696,1.12 -1.308,2.33 -1.83,3.605c-0.223,0.546 -0.43,1.103 -0.621,1.671c-0.15,0.445 -0.29,0.897 -0.42,1.353c-0.938,3.285 -1.365,6.796 -1.471,10.296c-0.024,0.787 -0.033,1.576 -0.025,2.364c0.031,3.411 0.364,6.834 1.146,10.092c0.116,0.482 0.241,0.959 0.377,1.432c0.173,0.604 0.362,1.2 0.567,1.785c0.327,0.931 0.696,1.835 1.105,2.706c0.349,0.743 0.728,1.461 1.134,2.152c0.663,1.128 1.399,2.183 2.217,3.117c0.865,0.987 1.822,1.835 2.852,2.49c1.015,0.645 2.095,1.098 3.203,1.362c1.044,0.249 2.109,0.329 3.169,0.282c1.048,-0.048 2.095,-0.227 3.11,-0.58c0.58,-0.201 1.149,-0.459 1.698,-0.777c0.535,-0.309 1.051,-0.674 1.541,-1.093c0.985,-0.841 1.86,-1.894 2.613,-3.082c0.376,-0.592 0.721,-1.217 1.04,-1.865c0.148,-0.301 0.289,-0.607 0.427,-0.917l0.51,-0.726l0.694,-0.375l0.748,0.048c0.221,0.154 0.442,0.308 0.663,0.462Zm-55.772,-39.398c-0.192,0.003 -0.384,0.012 -0.575,0.033c-0.313,0.035 -0.624,0.098 -0.922,0.198c-0.28,0.093 -0.549,0.22 -0.797,0.379c-0.21,0.135 -0.405,0.292 -0.582,0.467c-0.178,0.173 -0.34,0.364 -0.483,0.567c-0.103,0.145 -0.195,0.296 -0.278,0.453c-0.06,0.112 -0.114,0.227 -0.163,0.345c-0.361,0.855 -0.446,1.799 -0.414,2.719c0.007,0.201 0.02,0.401 0.041,0.601c0.015,0.138 0.033,0.276 0.056,0.414c0.018,0.106 0.039,0.212 0.063,0.318c0.019,0.08 0.039,0.159 0.061,0.238c0.124,0.432 0.318,0.867 0.656,1.174c0.058,0.052 0.12,0.101 0.185,0.145c0.292,0.198 0.638,0.302 0.983,0.36c0.194,0.032 0.391,0.05 0.587,0.057c0.11,0.004 0.22,0.007 0.329,0.001c0.147,-0.007 0.294,-0.023 0.439,-0.043c0.192,-0.026 0.382,-0.059 0.571,-0.095c0.143,-0.047 0.287,-0.094 0.43,-0.14c0.319,-0.1 0.638,-0.2 0.961,-0.283c0.245,-0.063 0.493,-0.119 0.745,-0.139c0.096,-0.008 0.191,-0.01 0.287,-0.008c0.302,0.008 0.604,0.062 0.89,0.161c0.208,0.072 0.408,0.168 0.595,0.284c0.133,0.083 0.26,0.176 0.379,0.278c0.094,0.08 0.183,0.166 0.268,0.257c0.574,0.615 0.9,1.417 1.106,2.222c0.032,0.129 0.062,0.259 0.09,0.389c0.038,0.18 0.071,0.36 0.1,0.542c0.043,0.263 0.077,0.528 0.106,0.794c0.04,0.367 0.068,0.736 0.088,1.105c0.03,0.531 0.041,1.061 0.045,1.592c0.014,5.617 0.014,11.234 0,16.851c-0.004,0.525 -0.016,1.049 -0.048,1.573c-0.022,0.367 -0.052,0.732 -0.094,1.097c-0.028,0.241 -0.062,0.482 -0.102,0.721c-0.031,0.182 -0.065,0.363 -0.105,0.543c-0.028,0.131 -0.06,0.261 -0.094,0.391c-0.205,0.766 -0.521,1.523 -1.053,2.121c-0.081,0.091 -0.166,0.178 -0.256,0.26c-0.132,0.121 -0.274,0.231 -0.425,0.328c-0.181,0.117 -0.373,0.215 -0.574,0.292c-0.277,0.105 -0.568,0.169 -0.863,0.191c-0.458,0.034 -0.917,-0.032 -1.363,-0.136l-0.049,-0.012l-2.39,-0.551c-0.057,0.001 -0.113,0.005 -0.169,0.008c-0.311,0.023 -0.622,0.071 -0.918,0.174c-0.195,0.067 -0.382,0.161 -0.547,0.286c-0.407,0.309 -0.634,0.791 -0.774,1.27c-0.023,0.08 -0.044,0.16 -0.063,0.241c-0.03,0.125 -0.055,0.252 -0.076,0.378c-0.027,0.163 -0.047,0.327 -0.063,0.491c-0.024,0.257 -0.037,0.515 -0.04,0.773c-0.005,0.351 0.009,0.702 0.054,1.05c0.074,0.574 0.23,1.138 0.498,1.653c0.097,0.188 0.21,0.368 0.335,0.54c0.168,0.23 0.36,0.445 0.572,0.638c0.193,0.176 0.405,0.333 0.632,0.463c0.473,0.273 1.005,0.421 1.546,0.476c0.317,0.033 0.637,0.03 0.955,0.022c0.34,-0.009 0.68,-0.027 1.02,-0.048c0.999,-0.063 1.996,-0.161 2.991,-0.269c0.435,-0.047 0.869,-0.098 1.304,-0.145c0.28,-0.031 0.559,-0.06 0.839,-0.088c1.145,-0.113 2.292,-0.213 3.441,-0.247c0.38,-0.012 0.76,-0.012 1.14,-0.01c0.453,0.002 0.906,0.008 1.359,0.018c1.122,0.025 2.242,0.074 3.361,0.158c0.451,0.034 0.901,0.074 1.351,0.12c0.432,0.045 0.864,0.092 1.296,0.138c0.621,0.065 1.242,0.129 1.863,0.189c0.363,0.035 0.726,0.068 1.089,0.099c0.233,0.02 0.466,0.039 0.699,0.055c0.209,0.015 0.419,0.029 0.629,0.034c0.198,0.005 0.396,-0.002 0.593,-0.015c0.11,-0.008 0.22,-0.018 0.329,-0.031c0.598,-0.072 1.205,-0.239 1.699,-0.597c0.085,-0.061 0.166,-0.128 0.243,-0.2c0.48,-0.451 0.758,-1.074 0.929,-1.699c0.035,-0.13 0.066,-0.261 0.093,-0.392c0.03,-0.144 0.056,-0.288 0.077,-0.433c0.028,-0.184 0.049,-0.369 0.065,-0.555c0.024,-0.263 0.037,-0.527 0.042,-0.792c0.009,-0.412 0,-0.825 -0.044,-1.235c-0.015,-0.143 -0.035,-0.285 -0.06,-0.427c-0.019,-0.109 -0.042,-0.218 -0.068,-0.326c-0.021,-0.082 -0.043,-0.163 -0.069,-0.244c-0.019,-0.06 -0.039,-0.12 -0.062,-0.179c-0.122,-0.321 -0.304,-0.636 -0.595,-0.831c-0.26,-0.174 -0.575,-0.251 -0.883,-0.286c-0.207,-0.024 -0.418,-0.033 -0.626,-0.021c-0.487,0.03 -0.962,0.151 -1.435,0.26c-0.088,0.019 -0.175,0.038 -0.263,0.057c-0.271,0.056 -0.543,0.108 -0.818,0.145c-0.172,0.022 -0.345,0.038 -0.518,0.041c-0.169,0.003 -0.337,-0.006 -0.504,-0.028c-0.301,-0.04 -0.596,-0.122 -0.874,-0.244c-0.208,-0.091 -0.406,-0.204 -0.591,-0.337c-0.138,-0.099 -0.268,-0.208 -0.39,-0.327c-0.084,-0.081 -0.164,-0.166 -0.239,-0.255c-0.596,-0.7 -0.917,-1.589 -1.109,-2.477c-0.033,-0.154 -0.063,-0.309 -0.089,-0.464c-0.039,-0.231 -0.071,-0.464 -0.098,-0.697c-0.034,-0.298 -0.059,-0.596 -0.077,-0.896c-0.027,-0.435 -0.038,-0.87 -0.042,-1.306c-0.031,-10.294 0.09,-20.588 -0.001,-30.882c-0.003,-0.247 -0.016,-0.494 -0.046,-0.74c-0.019,-0.152 -0.045,-0.304 -0.082,-0.453c-0.022,-0.086 -0.047,-0.172 -0.079,-0.255c-0.018,-0.049 -0.038,-0.097 -0.062,-0.143c-0.013,-0.026 -0.027,-0.051 -0.042,-0.075c-0.024,-0.039 -0.053,-0.079 -0.091,-0.105c-0.03,-0.02 -0.065,-0.032 -0.1,-0.042c-0.026,-0.007 -0.053,-0.012 -0.079,-0.017c-0.041,-0.007 -0.083,-0.011 -0.125,-0.014c-0.027,-0.002 -0.055,-0.006 -0.081,-0.004c-0.042,0.003 -0.084,0.008 -0.125,0.013c-0.131,0.014 -0.261,0.031 -0.392,0.048c-0.272,0.035 -0.544,0.073 -0.816,0.111c-0.663,0.094 -1.325,0.195 -1.988,0.288c-0.789,0.108 -1.58,0.203 -2.374,0.269c-0.672,0.055 -1.347,0.088 -2.021,0.084c-0.719,-0.006 -1.438,-0.046 -2.155,-0.104c-0.859,-0.069 -1.716,-0.165 -2.57,-0.274c-0.536,-0.069 -1.069,-0.148 -1.604,-0.219c-0.192,-0.026 -0.383,-0.05 -0.575,-0.073c-0.592,-0.069 -1.188,-0.131 -1.784,-0.143c-0.06,0 -0.12,0 -0.179,0Zm-68.952,7.073c0.49,0.004 0.979,0.029 1.466,0.081c0.791,0.085 1.575,0.241 2.334,0.48c0.792,0.249 1.556,0.59 2.268,1.019c0.488,0.295 0.95,0.632 1.381,1.005c0.325,0.281 0.633,0.583 0.922,0.902c0.194,0.216 0.38,0.439 0.557,0.669c1.3,1.684 2.11,3.697 2.62,5.75c0.092,0.369 0.174,0.741 0.248,1.115c0.09,0.459 0.168,0.92 0.235,1.383c0.087,0.598 0.155,1.199 0.207,1.801c0.071,0.801 0.114,1.604 0.135,2.407c0.029,1.092 0.022,2.186 -0.025,3.277c-0.034,0.786 -0.089,1.571 -0.172,2.353c-0.062,0.588 -0.14,1.174 -0.236,1.758c-0.068,0.417 -0.147,0.833 -0.236,1.247c-0.071,0.332 -0.15,0.664 -0.236,0.993c-0.068,0.256 -0.14,0.511 -0.217,0.764c-0.522,1.717 -1.286,3.38 -2.405,4.793c-0.178,0.225 -0.365,0.443 -0.56,0.653c-0.29,0.312 -0.598,0.606 -0.924,0.88c-0.432,0.363 -0.895,0.689 -1.383,0.973c-0.711,0.415 -1.474,0.739 -2.263,0.971c-1.164,0.343 -2.378,0.49 -3.59,0.489c-1.191,0 -2.384,-0.151 -3.526,-0.493c-0.803,-0.241 -1.578,-0.576 -2.302,-1c-0.473,-0.278 -0.925,-0.593 -1.35,-0.941c-1.501,-1.228 -2.648,-2.846 -3.476,-4.59c-0.137,-0.288 -0.265,-0.58 -0.386,-0.876c-0.134,-0.331 -0.259,-0.666 -0.375,-1.005c-0.129,-0.378 -0.246,-0.761 -0.352,-1.147c-0.128,-0.464 -0.24,-0.931 -0.337,-1.402c-0.117,-0.559 -0.213,-1.122 -0.292,-1.688c-0.104,-0.742 -0.178,-1.489 -0.228,-2.237c-0.06,-0.913 -0.084,-1.829 -0.079,-2.745c0.008,-1.267 0.075,-2.536 0.223,-3.795c0.202,-1.716 0.555,-3.42 1.13,-5.051c0.129,-0.366 0.269,-0.728 0.421,-1.086c0.136,-0.321 0.283,-0.638 0.439,-0.95c0.36,-0.718 0.773,-1.411 1.243,-2.064c0.617,-0.86 1.335,-1.65 2.155,-2.322c0.199,-0.163 0.405,-0.32 0.616,-0.468c0.349,-0.246 0.713,-0.471 1.09,-0.672c0.603,-0.321 1.238,-0.579 1.893,-0.774c0.692,-0.206 1.405,-0.339 2.124,-0.405c0.352,-0.033 0.705,-0.048 1.059,-0.052c0.092,0 0.092,0 0.184,0Zm269.565,0c0.49,0.004 0.98,0.029 1.467,0.081c0.79,0.085 1.574,0.241 2.333,0.48c0.793,0.249 1.557,0.59 2.268,1.02c0.488,0.295 0.951,0.631 1.382,1.004c0.325,0.282 0.633,0.583 0.921,0.902c0.195,0.216 0.381,0.439 0.558,0.668c1.134,1.471 1.896,3.195 2.41,4.971c0.075,0.259 0.144,0.519 0.209,0.78c0.092,0.369 0.174,0.741 0.248,1.115c0.091,0.459 0.169,0.92 0.236,1.383c0.086,0.598 0.154,1.199 0.207,1.801c0.07,0.801 0.113,1.604 0.135,2.407c0.029,1.092 0.021,2.186 -0.026,3.277c-0.033,0.786 -0.089,1.571 -0.171,2.353c-0.063,0.588 -0.14,1.174 -0.236,1.757c-0.069,0.418 -0.147,0.834 -0.236,1.248c-0.072,0.332 -0.15,0.664 -0.237,0.993c-0.523,1.989 -1.337,3.935 -2.622,5.557c-0.178,0.225 -0.364,0.443 -0.56,0.653c-0.289,0.312 -0.598,0.606 -0.924,0.88c-0.432,0.363 -0.895,0.689 -1.382,0.973c-0.711,0.415 -1.474,0.739 -2.264,0.971c-1.164,0.343 -2.378,0.49 -3.589,0.489c-1.191,0 -2.384,-0.151 -3.527,-0.493c-0.803,-0.241 -1.578,-0.576 -2.301,-1c-0.474,-0.278 -0.926,-0.593 -1.351,-0.941c-1.525,-1.249 -2.684,-2.899 -3.516,-4.676c-0.122,-0.26 -0.237,-0.523 -0.345,-0.789c-0.135,-0.332 -0.26,-0.667 -0.375,-1.006c-0.129,-0.378 -0.246,-0.761 -0.352,-1.147c-0.128,-0.464 -0.24,-0.932 -0.338,-1.402c-0.116,-0.559 -0.212,-1.122 -0.292,-1.688c-0.103,-0.742 -0.177,-1.489 -0.227,-2.236c-0.061,-0.914 -0.085,-1.83 -0.079,-2.746c0.007,-1.267 0.074,-2.536 0.223,-3.796c0.202,-1.715 0.555,-3.419 1.129,-5.05c0.129,-0.366 0.269,-0.728 0.421,-1.085c0.137,-0.321 0.283,-0.638 0.439,-0.95c0.14,-0.28 0.288,-0.555 0.445,-0.826c0.498,-0.864 1.081,-1.683 1.753,-2.42c0.546,-0.599 1.153,-1.143 1.816,-1.609c0.349,-0.246 0.713,-0.471 1.09,-0.671c0.603,-0.322 1.238,-0.58 1.893,-0.775c0.692,-0.206 1.406,-0.339 2.124,-0.405c0.353,-0.033 0.706,-0.048 1.059,-0.052c0.092,0 0.092,0 0.184,0Zm-155.951,-1.381c0.312,0.004 0.624,0.024 0.934,0.066c0.607,0.081 1.207,0.241 1.788,0.486c0.492,0.208 0.969,0.478 1.423,0.805c0.246,0.178 0.486,0.372 0.717,0.583c0.836,0.759 1.56,1.719 2.166,2.792c0.691,1.222 1.232,2.585 1.629,4.018c0.66,2.384 0.923,4.935 0.949,7.465c0.006,0.516 0.002,1.031 -0.012,1.546c-0.066,2.505 -0.367,5.021 -1.052,7.365c-0.104,0.354 -0.216,0.702 -0.336,1.046c-0.129,0.368 -0.269,0.729 -0.419,1.083c-0.205,0.484 -0.43,0.954 -0.673,1.405c-0.289,0.537 -0.605,1.05 -0.948,1.528c-0.393,0.548 -0.822,1.05 -1.286,1.49c-0.49,0.466 -1.019,0.862 -1.575,1.174c-0.457,0.256 -0.931,0.456 -1.415,0.598c-0.49,0.144 -0.99,0.229 -1.491,0.261c-0.785,0.051 -1.575,-0.025 -2.341,-0.264c-0.428,-0.134 -0.848,-0.318 -1.251,-0.552c-0.402,-0.233 -0.788,-0.515 -1.152,-0.841c-1.221,-1.094 -2.168,-2.662 -2.847,-4.385c-0.1,-0.255 -0.195,-0.515 -0.285,-0.777c-0.109,-0.32 -0.209,-0.646 -0.302,-0.974c-0.267,-0.942 -0.469,-1.914 -0.619,-2.898c-0.214,-1.397 -0.325,-2.818 -0.365,-4.241c-0.012,-0.425 -0.017,-0.85 -0.018,-1.275l0,-1.445c0.015,-0.368 0.031,-0.735 0.053,-1.102c0.04,-0.672 0.096,-1.343 0.168,-2.01c0.09,-0.822 0.205,-1.639 0.354,-2.445c0.109,-0.591 0.235,-1.176 0.381,-1.752c0.113,-0.447 0.238,-0.888 0.376,-1.321c0.11,-0.344 0.227,-0.683 0.354,-1.017c0.105,-0.278 0.216,-0.552 0.334,-0.821c0.617,-1.417 1.408,-2.721 2.398,-3.71c0.14,-0.14 0.284,-0.274 0.432,-0.4c0.211,-0.181 0.43,-0.348 0.655,-0.498c0.363,-0.242 0.742,-0.441 1.132,-0.594c0.428,-0.168 0.869,-0.281 1.313,-0.339c0.234,-0.031 0.469,-0.046 0.705,-0.05c0.042,0 0.084,0 0.126,0Zm-34.47,-26.551c-0.453,0.003 -0.904,0.039 -1.35,0.117c-0.592,0.104 -1.172,0.284 -1.716,0.541c-0.825,0.39 -1.559,0.953 -2.184,1.616c-0.29,0.308 -0.558,0.638 -0.793,0.99c-0.276,0.414 -0.507,0.859 -0.685,1.325c-0.287,0.752 -0.428,1.552 -0.455,2.355c-0.016,0.46 0.005,0.923 0.071,1.379c0.073,0.507 0.202,1.005 0.389,1.481c0.182,0.466 0.419,0.91 0.7,1.325c0.29,0.427 0.625,0.823 0.99,1.188c0.365,0.365 0.76,0.7 1.188,0.989c0.426,0.289 0.884,0.532 1.365,0.717c0.79,0.304 1.635,0.445 2.48,0.449c0.543,0.002 1.087,-0.043 1.62,-0.15c0.491,-0.099 0.971,-0.251 1.427,-0.456c0.755,-0.339 1.437,-0.822 2.031,-1.397c0.343,-0.332 0.66,-0.692 0.937,-1.081c0.299,-0.419 0.552,-0.871 0.747,-1.347c0.175,-0.425 0.304,-0.868 0.389,-1.32c0.089,-0.473 0.131,-0.955 0.133,-1.437c0.003,-0.528 -0.04,-1.058 -0.141,-1.577c-0.094,-0.478 -0.236,-0.946 -0.43,-1.394c-0.194,-0.447 -0.438,-0.871 -0.724,-1.265c-0.233,-0.324 -0.494,-0.627 -0.775,-0.911c-0.595,-0.603 -1.283,-1.116 -2.051,-1.479c-0.544,-0.257 -1.124,-0.437 -1.717,-0.541c-0.413,-0.073 -0.831,-0.108 -1.25,-0.116c-0.066,-0.001 -0.131,-0.002 -0.196,-0.001Z" style="fill:#ff8200;"/></g><path d="M855.251,5.326c-6.46,0 -11.466,5.277 -11.466,11.534c0,6.257 4.972,11.466 11.398,11.466c6.46,0 11.5,-5.277 11.5,-11.534c0,-6.291 -5.006,-11.466 -11.432,-11.466Zm-0.068,20.192c-4.904,0 -8.625,-3.889 -8.625,-8.658c0,-4.769 3.755,-8.726 8.693,-8.726c4.904,0 8.692,3.889 8.692,8.658c0,4.769 -3.822,8.726 -8.76,8.726Zm4.87,-10.687c0,-2.402 -1.623,-3.755 -4.498,-3.755l-4.667,0l0,10.722l2.739,0l0,-2.976l2.029,0l1.59,2.976l3.146,0l-2.266,-3.518c1.251,-0.608 1.927,-1.826 1.927,-3.449Zm-6.426,-1.59l1.928,0c1.184,0 1.86,0.575 1.86,1.691c0,1.082 -0.676,1.725 -1.86,1.725l-1.928,0l0,-3.416Z" style="fill:#fff;fill-rule:nonzero;"/></g><g><path d="M32.875,86.059l-8.996,0c-2.571,0 -3.856,1.533 -3.856,4.6c0,0.721 0.383,1.082 1.15,1.082c0.225,0 0.564,-0.034 1.015,-0.101c0.451,-0.068 0.789,-0.102 1.014,-0.102c1.669,0 2.503,1.331 2.503,3.991c0,1.443 -0.383,2.616 -1.15,3.518c-0.767,0.902 -1.781,1.353 -3.044,1.353c-0.631,0 -2.029,-0.158 -4.194,-0.474c-0.947,-0.135 -2.277,-0.203 -3.991,-0.203c-1.849,0 -3.292,0.068 -4.329,0.203c-2.39,0.316 -3.811,0.474 -4.262,0.474c-1.398,0 -2.537,-0.429 -3.416,-1.285c-0.879,-0.857 -1.319,-1.985 -1.319,-3.383c0,-3.156 1.195,-4.735 3.585,-4.735c0.271,0 0.699,0.034 1.285,0.102c0.587,0.067 1.015,0.101 1.286,0.101c0.857,0 1.556,-0.473 2.097,-1.42c0.135,-0.271 0.451,-1.105 0.947,-2.503l9.335,-26.585c1.082,-3.021 2.3,-4.915 3.653,-5.682c0.992,-0.496 3.179,-0.744 6.561,-0.744c3.788,0 6.178,0.237 7.17,0.71c0.993,0.474 1.804,1.793 2.436,3.957l8.658,28.817c0.677,2.3 1.466,3.45 2.368,3.45c0.27,0 0.744,-0.068 1.42,-0.203l0.744,0c2.526,0 3.789,1.488 3.789,4.465c0,1.488 -0.451,2.683 -1.353,3.585c-0.902,0.902 -2.075,1.353 -3.518,1.353c-0.631,0 -1.465,-0.068 -2.503,-0.203c-1.262,-0.226 -2.097,-0.338 -2.503,-0.338c-0.992,-0.091 -2.277,-0.136 -3.855,-0.136c-1.714,0 -2.864,0.045 -3.45,0.136c-2.3,0.36 -3.743,0.541 -4.329,0.541c-1.218,0 -2.222,-0.462 -3.011,-1.387c-0.789,-0.924 -1.183,-2.086 -1.183,-3.484c0,-2.66 0.856,-3.991 2.57,-3.991c0.226,0 0.564,0.034 1.015,0.102c0.451,0.067 0.789,0.101 1.014,0.101c0.857,0 1.286,-0.473 1.286,-1.42c0,-1.218 -0.248,-2.233 -0.744,-3.044c-0.497,-0.812 -1.128,-1.218 -1.895,-1.218Zm-1.014,-10.35l-3.247,-13.867l-4.194,14.409c-0.045,0.135 -0.068,0.293 -0.068,0.473c0,0.541 0.564,0.812 1.691,0.812l4.194,0c1.173,0 1.759,-0.316 1.759,-0.947c0,0.045 -0.045,-0.248 -0.135,-0.88Z" style="fill:#fff;fill-rule:nonzero;"/><path d="M70.689,67.93l0,3.247c3.472,-4.059 7.396,-6.088 11.77,-6.088c4.69,0 8.005,1.759 9.944,5.276c1.037,1.804 1.556,4.645 1.556,8.524l0,10.146c0,2.3 0.451,3.45 1.353,3.45c0.225,0 0.564,-0.067 1.014,-0.203c0.226,-0.09 0.564,-0.135 1.015,-0.135c1.984,0 2.977,1.173 2.977,3.518c0,3.111 -1.353,4.667 -4.059,4.667c-0.722,0 -1.804,-0.09 -3.247,-0.27c-1.443,-0.181 -2.526,-0.271 -3.247,-0.271c-1.127,0 -2.323,0.09 -3.585,0.271c-1.263,0.18 -2.3,0.27 -3.112,0.27c-2.661,0 -3.991,-1.375 -3.991,-4.126c0,-2.39 0.924,-3.653 2.773,-3.788c1.218,-0.09 1.827,-0.654 1.827,-1.691l0,-9.471c0,-2.615 -0.338,-4.453 -1.015,-5.513c-0.676,-1.06 -1.826,-1.589 -3.45,-1.589c-1.849,0 -3.371,0.631 -4.566,1.894c-1.195,1.262 -1.792,2.863 -1.792,4.802l0,7.036c0,2.029 0.09,3.258 0.27,3.686c0.181,0.429 0.699,0.71 1.556,0.846c1.624,0.225 2.435,1.443 2.435,3.653c0,2.841 -1.195,4.261 -3.585,4.261c-0.676,0 -1.511,-0.067 -2.503,-0.203c-1.668,-0.225 -2.908,-0.338 -3.72,-0.338c-0.812,0 -2.018,0.09 -3.619,0.271c-1.601,0.18 -2.807,0.27 -3.619,0.27c-2.841,0 -4.262,-1.511 -4.262,-4.532c0,-2.525 1.082,-3.788 3.247,-3.788c0.361,0 0.767,0.079 1.218,0.237c0.451,0.157 0.789,0.236 1.014,0.236c0.767,0 1.15,-1.262 1.15,-3.788l0,-10.958c0,-2.571 -0.383,-3.856 -1.15,-3.856c-0.18,0 -0.53,0.079 -1.048,0.237c-0.519,0.158 -0.913,0.236 -1.184,0.236c-2.165,0 -3.247,-1.24 -3.247,-3.72c0,-1.353 0.372,-2.458 1.116,-3.315c0.744,-0.856 1.725,-1.285 2.943,-1.285c0.361,0 1.127,0.113 2.3,0.338c0.676,0.136 1.262,0.203 1.759,0.203c0.541,0 1.465,-0.09 2.773,-0.27c1.308,-0.181 2.029,-0.271 2.165,-0.271c1.217,0 1.826,0.632 1.826,1.894Z" style="fill:#fff;fill-rule:nonzero;"/><path d="M119.732,101.212c-5.592,0 -9.91,-1.579 -12.954,-4.736c-3.044,-3.156 -4.566,-7.598 -4.566,-13.326c0,-5.682 1.51,-10.113 4.532,-13.292c3.021,-3.179 7.26,-4.769 12.717,-4.769c5.367,0 9.594,1.579 12.684,4.735c3.089,3.157 4.633,7.486 4.633,12.988c0,5.772 -1.499,10.282 -4.498,13.529c-2.999,3.247 -7.182,4.871 -12.548,4.871Zm-0.271,-27.803c-1.984,0 -3.551,0.869 -4.701,2.605c-1.15,1.736 -1.725,4.115 -1.725,7.136c0,3.067 0.575,5.457 1.725,7.171c1.15,1.713 2.762,2.57 4.836,2.57c4.194,0 6.291,-3.247 6.291,-9.741c0,-6.494 -2.142,-9.741 -6.426,-9.741Z" style="fill:#fff;fill-rule:nonzero;"/><path d="M154.772,75.304l0,2.773l-0.068,4.194l-0.135,4.532c-0.045,1.488 -0.068,2.097 -0.068,1.827c0,2.66 0.857,3.991 2.571,3.991c1.623,0 2.435,-1.195 2.435,-3.586c0,-0.36 -0.023,-0.631 -0.068,-0.811c0,-0.226 0,-0.519 0,-0.88c-0.045,-0.315 -0.067,-0.541 -0.067,-0.676c0,-2.435 1.217,-3.653 3.652,-3.653c2.842,0 4.262,2.277 4.262,6.832c0,3.563 -1.06,6.348 -3.179,8.354c-2.12,2.007 -5.074,3.011 -8.862,3.011c-7.441,0 -11.161,-3.924 -11.161,-11.771c0,-1.262 0.056,-3.156 0.169,-5.682c0.113,-2.525 0.169,-4.419 0.169,-5.682l0,-2.165c0,-1.127 -0.101,-1.837 -0.304,-2.13c-0.203,-0.294 -0.688,-0.44 -1.455,-0.44l-1.082,0c-0.857,0 -1.556,-0.327 -2.097,-0.981c-0.541,-0.654 -0.812,-1.499 -0.812,-2.537c0,-1.037 0.282,-1.928 0.846,-2.672c0.564,-0.744 1.229,-1.116 1.995,-1.116l1.286,0c1.082,0 1.713,-0.316 1.894,-0.947c0.135,-0.361 0.203,-0.969 0.203,-1.826l0,-3.315c0,-1.578 0.417,-2.661 1.251,-3.247c0.834,-0.586 2.356,-0.879 4.566,-0.879c1.578,0 2.65,0.225 3.213,0.676c0.564,0.451 0.846,1.443 0.846,2.977l0,3.652c0,1.308 0.124,2.12 0.372,2.436c0.248,0.315 0.89,0.473 1.928,0.473l4.87,0c2.661,0 3.991,1.24 3.991,3.721c0,2.39 -1.217,3.585 -3.653,3.585l-5.547,0c-0.947,0 -1.51,0.158 -1.691,0.473c-0.18,0.316 -0.27,0.812 -0.27,1.489Z" style="fill:#fff;fill-rule:nonzero;"/><path d="M185.618,56.904l0,12.379c1.939,-1.668 3.563,-2.785 4.87,-3.348c1.308,-0.564 2.932,-0.846 4.871,-0.846c4.194,0 7.17,1.308 8.929,3.924c1.172,1.758 1.759,4.554 1.759,8.388l0,11.634c0,2.255 0.451,3.383 1.353,3.383c0.36,0 0.676,-0.045 0.947,-0.136c0.27,-0.09 0.631,-0.135 1.082,-0.135c1.984,0 2.976,1.15 2.976,3.45c0,3.157 -1.33,4.735 -3.991,4.735c-0.766,0 -1.894,-0.09 -3.382,-0.27c-1.488,-0.181 -2.616,-0.271 -3.382,-0.271c-0.722,0 -1.793,0.09 -3.213,0.271c-1.421,0.18 -2.492,0.27 -3.214,0.27c-1.127,0 -2.04,-0.383 -2.739,-1.15c-0.699,-0.766 -1.049,-1.781 -1.049,-3.044c0,-2.3 0.857,-3.517 2.571,-3.653c0.767,-0.045 1.24,-0.248 1.42,-0.608c0.181,-0.361 0.271,-0.97 0.271,-1.827l0,-10.35c0,-3.743 -1.421,-5.614 -4.262,-5.614c-3.878,0 -5.817,2.683 -5.817,8.05l0,7.982c0,0.947 0.101,1.544 0.304,1.792c0.203,0.248 0.756,0.44 1.658,0.575c1.398,0.226 2.097,1.353 2.097,3.383c0,2.976 -1.241,4.464 -3.721,4.464c-0.541,0 -1.511,-0.09 -2.909,-0.27c-1.398,-0.181 -2.683,-0.271 -3.855,-0.271c-0.947,0 -1.962,0.068 -3.044,0.203c-1.804,0.225 -2.954,0.338 -3.45,0.338c-1.218,0 -2.21,-0.417 -2.977,-1.251c-0.766,-0.835 -1.15,-1.906 -1.15,-3.213c0,-2.571 1.105,-3.856 3.315,-3.856c0.271,0 0.643,0.079 1.116,0.237c0.474,0.157 0.846,0.236 1.116,0.236c0.767,0 1.15,-1.262 1.15,-3.788l0,-22.526c0,-2.525 -0.383,-3.788 -1.15,-3.788c-0.315,0 -0.721,0.091 -1.217,0.271c-0.271,0.09 -0.632,0.135 -1.083,0.135c-2.164,0 -3.247,-1.24 -3.247,-3.72c0,-1.353 0.384,-2.447 1.15,-3.281c0.767,-0.834 1.759,-1.251 2.977,-1.251c0.586,0 1.443,0.067 2.57,0.202c1.128,0.136 1.984,0.203 2.571,0.203c1.398,0 2.604,-0.067 3.619,-0.203c1.014,-0.135 1.792,-0.202 2.333,-0.202c1.218,0 1.827,0.789 1.827,2.367Z" style="fill:#fff;fill-rule:nonzero;"/><path d="M247.243,80.242c0,1.894 -0.237,3.156 -0.711,3.788c-0.473,0.631 -1.409,0.947 -2.807,0.947l-16.505,0c-0.812,0 -1.319,0.079 -1.522,0.237c-0.203,0.157 -0.305,0.552 -0.305,1.183c0,1.894 0.609,3.473 1.827,4.735c1.217,1.263 2.75,1.895 4.599,1.895c1.895,0 3.834,-1.038 5.818,-3.112c1.353,-1.443 2.841,-2.165 4.464,-2.165c1.353,0 2.447,0.384 3.281,1.15c0.835,0.767 1.252,1.736 1.252,2.909c0,2.616 -1.432,4.837 -4.296,6.663c-2.863,1.826 -6.347,2.74 -10.451,2.74c-5.366,0 -9.651,-1.624 -12.852,-4.871c-3.202,-3.247 -4.803,-7.576 -4.803,-12.988c0,-5.456 1.589,-9.865 4.769,-13.224c3.179,-3.36 7.339,-5.04 12.48,-5.04c4.78,0 8.602,1.376 11.466,4.126c2.864,2.751 4.296,6.427 4.296,11.027Zm-21.512,-3.383c0,0.271 0.068,0.496 0.203,0.677c0.136,0.18 0.609,0.27 1.421,0.27l7.576,0c0.677,0 1.094,-0.079 1.252,-0.236c0.157,-0.158 0.236,-0.44 0.236,-0.846c0,-1.172 -0.518,-2.198 -1.556,-3.078c-1.037,-0.879 -2.254,-1.319 -3.652,-1.319c-1.804,0 -3.27,0.699 -4.397,2.097c-0.722,0.902 -1.083,1.714 -1.083,2.435Z" style="fill:#fff;fill-rule:nonzero;"/><path d="M265.168,68.133l0,5.75c0.632,-2.3 1.376,-3.991 2.233,-5.073c1.984,-2.481 4.757,-3.721 8.32,-3.721c2.48,0 4.566,0.801 6.257,2.402c1.691,1.6 2.537,3.573 2.537,5.918c0,1.849 -0.541,3.371 -1.624,4.567c-1.082,1.195 -2.457,1.792 -4.126,1.792c-1.263,0 -2.334,-0.406 -3.213,-1.218c-0.879,-0.811 -1.319,-1.803 -1.319,-2.976c0,-0.631 0.293,-1.511 0.879,-2.638l-0.406,0c-3.021,0 -5.05,1.601 -6.088,4.803c-0.811,2.57 -1.217,5.524 -1.217,8.861l0,2.571c0,1.623 0.135,2.66 0.406,3.111c0.18,0.271 0.496,0.406 0.947,0.406c0.405,0 0.969,-0.09 1.691,-0.27c0.721,-0.181 1.262,-0.271 1.623,-0.271c0.992,0 1.838,0.35 2.537,1.049c0.699,0.699 1.048,1.544 1.048,2.536c0,1.308 -0.439,2.402 -1.319,3.281c-0.879,0.879 -1.95,1.319 -3.213,1.319c-0.676,0 -1.939,-0.113 -3.788,-0.338c-1.127,-0.135 -2.548,-0.203 -4.262,-0.203c-1.713,0 -3.224,0.068 -4.532,0.203c-2.164,0.225 -3.495,0.338 -3.991,0.338c-2.796,0 -4.194,-1.511 -4.194,-4.532c0,-2.525 1.082,-3.788 3.247,-3.788c0.361,0 0.767,0.079 1.218,0.237c0.451,0.157 0.789,0.236 1.014,0.236c0.767,0 1.15,-1.262 1.15,-3.788l0,-10.958c0,-2.571 -0.383,-3.856 -1.15,-3.856c-0.18,0 -0.529,0.079 -1.048,0.237c-0.519,0.158 -0.913,0.236 -1.184,0.236c-2.165,0 -3.247,-1.24 -3.247,-3.72c0,-1.353 0.361,-2.458 1.082,-3.315c0.722,-0.856 1.647,-1.285 2.774,-1.285c0.451,0 1.082,0.09 1.894,0.271c0.812,0.18 1.578,0.27 2.3,0.27c0.541,0 1.33,-0.09 2.368,-0.27c1.037,-0.181 1.803,-0.271 2.299,-0.271c1.398,0 2.097,0.699 2.097,2.097Z" style="fill:#fff;fill-rule:nonzero;"/></g><g><path d="M882.222,84.864c-1.218,-0.045 -1.826,0.631 -1.826,2.029l0,2.165c0,1.533 0.676,2.3 2.029,2.3c0.541,0 1.218,-0.068 2.029,-0.203c0.992,-0.18 1.827,-0.271 2.503,-0.271c1.128,0 2.03,0.406 2.706,1.218c0.676,0.812 1.015,1.894 1.015,3.247c0,1.488 -0.451,2.683 -1.353,3.585c-0.902,0.902 -2.075,1.353 -3.518,1.353c-1.262,0 -3.134,-0.113 -5.614,-0.338c-2.481,-0.226 -4.352,-0.338 -5.615,-0.338c-1.939,0 -3.562,0.067 -4.87,0.203l-3.315,0.338c-0.902,0.09 -1.511,0.135 -1.826,0.135c-1.443,0 -2.605,-0.451 -3.484,-1.353c-0.879,-0.902 -1.319,-2.097 -1.319,-3.585c0,-1.263 0.349,-2.322 1.048,-3.179c0.699,-0.857 1.568,-1.286 2.605,-1.286c0.406,0 0.969,0.079 1.691,0.237c0.721,0.158 1.24,0.237 1.556,0.237c1.217,0 1.826,-1.533 1.826,-4.6l0,-18.738c0,-1.443 -0.045,-2.367 -0.135,-2.773c-0.226,-1.173 -0.789,-1.759 -1.691,-1.759c-0.361,0 -0.891,0.079 -1.59,0.237c-0.699,0.158 -1.251,0.237 -1.657,0.237c-1.037,0 -1.906,-0.429 -2.605,-1.286c-0.699,-0.856 -1.048,-1.916 -1.048,-3.179c0,-1.488 0.451,-2.694 1.353,-3.619c0.902,-0.924 2.074,-1.387 3.517,-1.387c0.045,0 0.113,0 0.203,0c0.09,0.046 0.181,0.068 0.271,0.068c1.082,0 2.728,0.113 4.938,0.338c2.21,0.226 3.878,0.339 5.006,0.339c2.164,0 4.532,-0.091 7.102,-0.271c3.247,-0.226 5.096,-0.338 5.547,-0.338c4.916,0 8.896,1.386 11.94,4.16c3.044,2.773 4.566,6.415 4.566,10.925c0,4.69 -1.567,8.41 -4.702,11.161c-3.134,2.751 -7.407,4.126 -12.818,4.126c-0.451,0 -1.308,-0.022 -2.571,-0.067l-1.894,-0.068Zm-1.826,-11.432c0,1.263 0.112,2.041 0.338,2.334c0.225,0.293 0.834,0.462 1.826,0.507l1.083,0.068c5.321,0.315 7.982,-1.782 7.982,-6.291c0,-4.33 -2.39,-6.494 -7.171,-6.494c-1.172,0 -1.984,0.067 -2.435,0.203c-0.812,0.225 -1.308,0.766 -1.488,1.623c-0.09,0.451 -0.135,1.128 -0.135,2.03l0,6.02Z" style="fill:#fff;fill-rule:nonzero;"/><path d="M924.703,101.099c-5.592,0 -9.91,-1.579 -12.954,-4.735c-3.044,-3.157 -4.566,-7.599 -4.566,-13.326c0,-5.683 1.511,-10.113 4.532,-13.293c3.022,-3.179 7.261,-4.769 12.718,-4.769c5.366,0 9.594,1.579 12.683,4.736c3.089,3.156 4.634,7.486 4.634,12.987c0,5.773 -1.5,10.282 -4.499,13.529c-2.999,3.247 -7.181,4.871 -12.548,4.871Zm-0.27,-27.802c-1.985,0 -3.552,0.868 -4.702,2.604c-1.15,1.736 -1.725,4.115 -1.725,7.137c0,3.066 0.575,5.456 1.725,7.17c1.15,1.714 2.762,2.57 4.837,2.57c4.194,0 6.291,-3.246 6.291,-9.74c0,-6.494 -2.142,-9.741 -6.426,-9.741Z" style="fill:#fff;fill-rule:nonzero;"/><path d="M959.676,65.45c3.427,0 6.584,1.33 9.47,3.991l0,-4.87c0,-1.624 -0.564,-2.436 -1.691,-2.436c-0.271,0 -0.812,0.045 -1.624,0.136c-0.586,0.18 -1.172,0.27 -1.758,0.27c-0.857,0 -1.579,-0.361 -2.165,-1.082c-0.586,-0.722 -0.879,-1.624 -0.879,-2.706c0,-2.886 1.533,-4.329 4.599,-4.329c0.992,0 1.714,0.022 2.165,0.067c1.804,0.181 3.021,0.271 3.653,0.271c0.586,0 1.443,-0.045 2.57,-0.135c1.128,-0.09 1.962,-0.136 2.503,-0.136c1.128,0 1.906,0.26 2.334,0.778c0.428,0.519 0.643,1.477 0.643,2.875l0,30.779c0,2.3 0.428,3.45 1.285,3.45c0.27,0 0.609,-0.068 1.015,-0.203c0.27,-0.091 0.631,-0.136 1.082,-0.136c1.939,0 2.909,1.15 2.909,3.45c0,1.398 -0.339,2.537 -1.015,3.416c-0.677,0.88 -1.578,1.319 -2.706,1.319l-0.406,0l-2.367,-0.405c-0.542,-0.091 -1.308,-0.136 -2.3,-0.136c-1.173,0 -2.142,0.045 -2.909,0.136c-1.127,0.135 -1.736,0.203 -1.826,0.203c-1.398,0 -2.097,-0.812 -2.097,-2.436l0,-2.503c-2.345,4.014 -5.863,6.021 -10.553,6.021c-4.149,0 -7.565,-1.703 -10.248,-5.107c-2.684,-3.405 -4.025,-7.701 -4.025,-12.887c0,-5.276 1.319,-9.538 3.957,-12.785c2.638,-3.247 6.099,-4.87 10.384,-4.87Zm2.367,8.523c-1.668,0 -3.033,0.789 -4.092,2.368c-1.06,1.578 -1.658,3.72 -1.793,6.426c0,0 0,0.293 0,0.879c0,2.751 0.53,4.916 1.59,6.494c1.059,1.579 2.491,2.368 4.295,2.368c1.984,0 3.597,-0.857 4.837,-2.571c1.24,-1.713 1.86,-3.991 1.86,-6.832c0,-2.751 -0.609,-4.96 -1.826,-6.629c-1.218,-1.669 -2.841,-2.503 -4.871,-2.503Z" style="fill:#fff;fill-rule:nonzero;"/><path d="M1008.72,76.679c0,-0.676 0.226,-1.353 0.677,-2.029c-1.038,-0.722 -2.188,-1.083 -3.45,-1.083c-1.984,0 -3.597,0.823 -4.837,2.469c-1.24,1.646 -1.86,3.845 -1.86,6.596c0,2.841 0.654,5.118 1.962,6.832c1.307,1.714 3.044,2.57 5.208,2.57c2.21,0 3.834,-1.195 4.871,-3.585c0.631,-1.488 1.172,-2.435 1.623,-2.841c0.632,-0.541 1.624,-0.812 2.977,-0.812c1.533,0 2.773,0.463 3.72,1.387c0.947,0.925 1.421,2.108 1.421,3.551c0,3.067 -1.489,5.728 -4.465,7.983c-2.976,2.254 -6.539,3.382 -10.688,3.382c-5.321,0 -9.56,-1.635 -12.717,-4.904c-3.157,-3.27 -4.735,-7.656 -4.735,-13.157c0,-5.547 1.623,-9.944 4.87,-13.191c3.247,-3.247 7.622,-4.871 13.123,-4.871c3.969,0 7.25,0.936 9.843,2.808c2.593,1.871 3.889,4.25 3.889,7.136c0,1.804 -0.586,3.258 -1.759,4.363c-1.172,1.105 -2.683,1.658 -4.532,1.658c-1.533,0 -2.773,-0.395 -3.72,-1.184c-0.947,-0.789 -1.421,-1.815 -1.421,-3.078Z" style="fill:#fff;fill-rule:nonzero;"/><path d="M1054.58,101.099c-3.698,0 -6.179,-1.488 -7.441,-4.465c-3.157,2.977 -6.9,4.465 -11.229,4.465c-3.563,0 -6.404,-0.936 -8.524,-2.807c-2.119,-1.872 -3.179,-4.364 -3.179,-7.475c0,-4.735 2.052,-7.802 6.156,-9.2c1.758,-0.586 3.788,-1.082 6.088,-1.488c3.202,-0.541 5.377,-1.161 6.527,-1.86c1.15,-0.699 1.725,-1.77 1.725,-3.214c0,-1.037 -0.439,-1.905 -1.319,-2.604c-0.879,-0.699 -1.973,-1.048 -3.28,-1.048c-1.489,0 -2.233,0.473 -2.233,1.42c0,0.316 0.023,0.632 0.068,0.947l0,0.271c0,1.263 -0.53,2.322 -1.59,3.179c-1.06,0.857 -2.379,1.285 -3.957,1.285c-1.804,0 -3.292,-0.541 -4.465,-1.623c-1.172,-1.082 -1.758,-2.435 -1.758,-4.059c0,-2.435 1.285,-4.352 3.855,-5.75c2.571,-1.398 6.111,-2.097 10.621,-2.097c4.87,0 8.5,0.744 10.891,2.233c2.57,1.623 3.855,4.645 3.855,9.064l0,14.003c0,1.443 0.361,2.164 1.083,2.164c0.36,0 0.699,-0.022 1.014,-0.067c0.136,-0.045 0.293,-0.068 0.474,-0.068c1.037,0 1.916,0.361 2.638,1.082c0.721,0.722 1.082,1.601 1.082,2.638c0,1.489 -0.665,2.706 -1.995,3.653c-1.331,0.947 -3.033,1.421 -5.107,1.421Zm-9.809,-14.476l0,-1.488c-0.316,0.18 -2.3,0.744 -5.953,1.691c-2.48,0.631 -3.72,1.601 -3.72,2.908c0,2.075 1.217,3.112 3.653,3.112c4.013,0 6.02,-2.074 6.02,-6.223Z" style="fill:#fff;fill-rule:nonzero;"/><path d="M1077.04,64.976c3.472,0 6.403,0.97 8.794,2.909c0.18,-1.894 1.398,-2.841 3.652,-2.841c2.3,0 3.45,0.812 3.45,2.435c0,0.541 -0.09,1.15 -0.27,1.827c-0.136,0.811 -0.203,1.578 -0.203,2.3c0,0.135 0.022,0.496 0.067,1.082l0,1.826c0,2.39 -1.195,3.586 -3.585,3.586c-1.713,0 -3.202,-0.857 -4.464,-2.571c-1.534,-2.074 -3.405,-3.112 -5.615,-3.112c-2.616,0 -3.923,0.902 -3.923,2.706c0,0.947 0.428,1.612 1.285,1.996c0.857,0.383 3.112,0.89 6.764,1.522c2.977,0.541 5.175,1.15 6.596,1.826c1.42,0.677 2.582,1.646 3.484,2.909c1.127,1.623 1.691,3.517 1.691,5.682c0,3.427 -1.319,6.291 -3.958,8.591c-2.638,2.3 -5.941,3.45 -9.91,3.45c-3.968,0 -7.576,-1.263 -10.823,-3.788c0,2.209 -1.127,3.314 -3.382,3.314c-2.435,0 -3.653,-0.992 -3.653,-2.976c0,-0.451 0.045,-1.15 0.135,-2.097c0.091,-0.947 0.136,-1.646 0.136,-2.097c0,-0.406 -0.034,-1.015 -0.102,-1.826c-0.067,-0.812 -0.101,-1.421 -0.101,-1.827c0,-2.029 1.263,-3.044 3.788,-3.044c1.218,0 2.142,0.18 2.773,0.541c0.632,0.361 1.308,1.06 2.03,2.097c1.127,1.669 2.164,2.762 3.111,3.281c0.947,0.519 2.345,0.778 4.194,0.778c3.247,0 4.871,-1.015 4.871,-3.044c0,-1.398 -1.308,-2.368 -3.924,-2.909l-3.923,-0.812c-3.202,-0.676 -5.468,-1.352 -6.798,-2.029c-1.331,-0.676 -2.379,-1.747 -3.146,-3.213c-0.766,-1.466 -1.15,-3.146 -1.15,-5.04c0,-3.382 1.116,-6.133 3.349,-8.252c2.232,-2.12 5.152,-3.18 8.76,-3.18Z" style="fill:#fff;fill-rule:nonzero;"/><path d="M1112.49,75.191l0,2.773l-0.068,4.194l-0.135,4.532c-0.045,1.489 -0.068,2.097 -0.068,1.827c0,2.661 0.857,3.991 2.571,3.991c1.623,0 2.435,-1.195 2.435,-3.585c0,-0.361 -0.023,-0.632 -0.068,-0.812c0,-0.225 0,-0.519 0,-0.879c-0.045,-0.316 -0.067,-0.542 -0.067,-0.677c0,-2.435 1.217,-3.653 3.652,-3.653c2.841,0 4.262,2.278 4.262,6.832c0,3.563 -1.06,6.348 -3.179,8.355c-2.12,2.006 -5.074,3.01 -8.862,3.01c-7.441,0 -11.161,-3.924 -11.161,-11.77c0,-1.263 0.056,-3.157 0.169,-5.683c0.113,-2.525 0.169,-4.419 0.169,-5.682l0,-2.164c0,-1.128 -0.101,-1.838 -0.304,-2.131c-0.203,-0.293 -0.688,-0.44 -1.455,-0.44l-1.082,0c-0.857,0 -1.556,-0.327 -2.097,-0.981c-0.541,-0.654 -0.812,-1.499 -0.812,-2.536c0,-1.038 0.282,-1.928 0.846,-2.672c0.563,-0.745 1.229,-1.117 1.995,-1.117l1.286,0c1.082,0 1.713,-0.315 1.894,-0.947c0.135,-0.36 0.203,-0.969 0.203,-1.826l0,-3.315c0,-1.578 0.417,-2.66 1.251,-3.247c0.834,-0.586 2.356,-0.879 4.566,-0.879c1.578,0 2.649,0.226 3.213,0.676c0.564,0.451 0.846,1.444 0.846,2.977l0,3.653c0,1.307 0.124,2.119 0.372,2.435c0.248,0.316 0.89,0.473 1.928,0.473l4.87,0c2.661,0 3.991,1.241 3.991,3.721c0,2.39 -1.218,3.585 -3.653,3.585l-5.547,0c-0.947,0 -1.51,0.158 -1.691,0.474c-0.18,0.315 -0.27,0.811 -0.27,1.488Z" style="fill:#fff;fill-rule:nonzero;"/></g></g></svg>