<?xml version="1.0" encoding="UTF-8"?>
<svg width="1965px" height="454px" viewBox="0 0 1965 454" version="1.1" xmlns="http://www.w3.org/2000/svg" xmlns:xlink="http://www.w3.org/1999/xlink">
    <!-- Generator: Sketch 48.2 (47327) - http://www.bohemiancoding.com/sketch -->
    <title>storytap_logo</title>
    <desc>Created with Sketch.</desc>
    <defs></defs>
    <g id="Page-1" stroke="none" stroke-width="1" fill="none" fill-rule="evenodd">
        <g id="storytap_logo" transform="translate(-13.000000, -143.000000)">
            <path d="M13.1089861,463.449674 L102.375654,446.273703 C102.375654,455.143967 102.53693,462.96581 102.859485,469.739467 C103.18204,476.513123 104.028734,483.89146 105.399593,491.874698 C106.770452,499.857936 108.625116,506.389578 110.96364,511.46982 C113.302164,516.550062 116.608304,520.823853 120.882159,524.29132 C125.156014,527.758787 130.195861,529.492494 136.001852,529.492494 C153.419826,529.492494 162.128682,518.364511 162.128682,496.108212 C162.128682,465.626758 144.952882,435.307036 110.600768,405.148138 L83.2643623,381.924289 C74.5553755,374.6668 67.6205456,368.618983 62.4596645,363.780657 C57.2987835,358.942331 51.2106479,352.410689 44.1950752,344.185535 C37.1795025,335.960381 31.6961486,328.017581 27.7448491,320.356898 C23.7935495,312.696216 20.4067721,303.463215 17.5844153,292.657621 C14.7620584,281.852026 13.3509012,270.401493 13.3509012,258.305678 C13.3509012,222.985898 24.5595216,195.044984 46.9770988,174.482099 C69.3946759,153.919213 99.1499345,143.637925 136.243767,143.637925 C167.047776,143.637925 193.254982,154.604633 214.866172,176.538377 C236.477361,198.472122 247.282794,224.92124 247.282794,255.886527 L247.040879,259.031423 L247.040879,266.288876 L156.080805,278.86846 C156.080805,277.094408 156.201761,274.312412 156.443677,270.52239 C156.685593,266.732368 156.80655,263.627822 156.80655,261.208659 C156.80655,255.402668 156.403362,249.838676 155.596974,244.516518 C154.790587,239.194359 153.460067,233.87228 151.605375,228.550122 C149.750684,223.227963 146.88805,218.994491 143.01739,215.849579 C139.146729,212.704667 134.469751,211.132235 128.986314,211.132235 C119.309662,211.132235 112.052282,214.9222 107.213956,222.502244 C102.37563,230.082288 99.9565036,239.033057 99.9565036,249.354819 C99.9565036,258.386361 101.367661,266.853305 104.190018,274.755904 C107.012374,282.658503 111.286165,290.03684 117.011517,296.891135 C122.73687,303.74543 128.01863,309.430378 132.856956,313.946149 C137.695282,318.46192 144.146286,323.985592 152.210163,330.517332 C160.27404,337.049072 165.999306,341.847007 169.386135,344.91128 C181.804505,355.878152 192.287387,366.159441 200.835096,375.755454 C209.382806,385.351467 217.446561,396.197219 225.026605,408.293034 C232.606649,420.388849 238.291597,433.452133 242.081619,447.483279 C245.871641,461.514424 247.766624,476.674285 247.766624,492.963316 C247.766624,523.444769 236.880554,548.402093 215.108087,567.836036 C193.33562,587.269979 166.886501,596.986804 135.759937,596.986804 C115.600245,596.986804 97.6987076,593.277477 82.0547869,585.85871 C66.4108661,578.439944 53.7910884,568.360249 44.1950752,555.619324 C34.599062,542.878399 27.2207255,528.766826 22.0598444,513.284183 C16.8989634,497.80154 13.9153738,481.190203 13.1089861,463.449674 Z" id="S" fill="#231F20"></path>
            <polygon id="T" fill="#231F20" points="323.637044 588.035946 323.637044 218.389688 259.77146 218.389688 259.77146 152.588783 474.350146 152.588783 474.350146 218.389688 411.694137 218.389688 411.694137 588.035946"></polygon>
            <path d="M489.250166,444.822213 L489.250166,298.463583 C489.250166,195.568517 531.665521,144.121755 616.497503,144.121755 C701.490764,144.121755 743.986756,195.568517 743.986756,298.463583 L743.986756,442.644977 C743.986756,460.06295 742.696555,476.150143 740.116115,490.907037 C737.535674,505.663932 733.140927,519.654548 726.931742,532.879305 C720.722557,546.104063 712.820077,557.353002 703.224063,566.626461 C693.62805,575.899919 681.492098,583.197618 666.815842,588.519776 C652.139587,593.841935 635.366975,596.502974 616.497503,596.502974 C597.78931,596.502974 581.097335,593.882254 566.42108,588.640734 C551.744824,583.399214 539.649191,576.303109 530.133816,567.352206 C520.618442,558.401303 512.75628,547.434595 506.547095,534.451754 C500.33791,521.468912 495.902844,507.639571 493.241765,492.963316 C490.580686,478.28706 489.250166,462.240186 489.250166,444.822213 Z M655.929663,464.65925 L655.929663,276.44931 C655.929663,233.549486 642.785741,212.099895 616.497503,212.099895 C608.594904,212.099895 601.901987,214.075516 596.418551,218.026815 C590.935115,221.978115 586.903237,227.380831 584.322796,234.235126 C581.742356,241.089421 579.928011,247.862976 578.879707,254.555994 C577.831403,261.249012 577.307259,268.54671 577.307259,276.44931 L577.307259,464.65925 C577.307259,507.397796 590.370543,528.766749 616.497503,528.766749 C642.785741,528.766749 655.929663,507.397796 655.929663,464.65925 Z" id="O" fill="#231F20"></path>
            <path d="M869.236832,333.783186 L894.396002,333.783186 C901.169658,333.783186 906.975562,331.525334 911.813888,327.009563 C916.652214,322.493793 920.159948,316.768526 922.337195,309.833592 C924.514441,302.898658 926.046555,296.528291 926.933581,290.7223 C927.820608,284.916309 928.264114,279.432955 928.264114,274.272074 C928.264114,269.111193 927.901245,263.789114 927.175496,258.305678 C926.449747,252.822242 925.159547,246.734106 923.304855,240.041088 C921.450163,233.348071 918.385936,227.864717 914.112081,223.590862 C909.838227,219.317008 904.637104,217.180112 898.508558,217.180112 L869.236832,217.180112 L869.236832,333.783186 Z M781.179739,588.035946 L781.179739,152.588783 L876.978115,152.588783 C898.750582,152.588783 917.902002,154.645041 934.432949,158.757618 C950.963896,162.870195 965.438338,169.3212 977.856708,178.110825 C990.275078,186.900451 999.709672,198.754172 1006.16077,213.672344 C1012.61187,228.590515 1015.83738,246.451734 1015.83738,267.256536 C1015.83738,276.288078 1015.51483,284.351834 1014.86972,291.448045 C1014.22461,298.544257 1012.73281,306.648331 1010.39429,315.760512 C1008.05576,324.872692 1004.87058,332.936448 1000.83864,339.952021 C996.806703,346.967594 991.000799,353.862105 983.420755,360.635761 C975.840711,367.409417 966.889942,373.054046 956.56818,377.569817 C982.69514,460.46647 1005.43493,530.621144 1024.78824,588.035946 L933.586246,588.035946 L883.751738,387.488336 L869.236832,387.488336 L869.236832,588.035946 L781.179739,588.035946 Z M1106.27766,588.035946 L1106.27766,444.096467 L1024.51036,152.588783 L1107.48723,152.588783 L1148.12897,343.94362 C1153.12857,322.97754 1160.62786,291.085387 1170.62707,248.266202 C1180.62628,205.447016 1188.04493,173.554863 1192.88326,152.588783 L1273.44098,152.588783 L1191.43177,444.096467 L1191.43177,588.035946 L1106.27766,588.035946 Z" id="RY" fill="#231F20"></path>
            <polygon id="T" fill="#C70031" points="1359.60678 588.035946 1359.60678 218.389688 1295.7412 218.389688 1295.7412 152.588783 1510.31988 152.588783 1510.31988 218.389688 1447.66387 218.389688 1447.66387 588.035946"></polygon>
            <path d="M1590.63446,440.715899 L1635.63035,440.715899 L1613.61623,279.117763 L1590.63446,440.715899 Z M1480.32196,588.041146 L1574.42626,152.597067 L1652.32237,152.597067 L1746.18476,588.041146 L1659.33786,588.041146 L1641.43627,494.904496 L1584.58662,494.904496 L1567.65269,588.041146 L1480.32196,588.041146 Z" id="A" fill="#C70031"></path>
            <path d="M1852.42389,339.589148 C1857.10094,339.589148 1861.25378,339.306917 1864.88252,338.742445 C1868.51126,338.177974 1871.69645,337.532874 1874.43817,336.807125 C1877.17988,336.081376 1879.59901,334.750856 1881.69562,332.815526 C1883.79223,330.880195 1885.52593,329.186807 1886.89679,327.735309 C1888.26765,326.283811 1889.4369,323.905003 1890.40456,320.598814 C1891.37223,317.292624 1892.09797,314.591266 1892.5818,312.494658 C1893.06563,310.39805 1893.4285,307.011273 1893.67042,302.334224 C1893.91233,297.657176 1894.03329,293.907529 1894.03329,291.085173 L1894.03329,274.272074 C1894.03329,267.98225 1893.99297,263.224634 1893.91233,259.999083 C1893.83169,256.773533 1893.54946,252.661017 1893.06563,247.661414 C1892.5818,242.66181 1891.81574,238.912164 1890.76744,236.412362 C1889.71913,233.91256 1888.18702,231.049927 1886.17105,227.824376 C1884.15508,224.598826 1881.69563,222.260337 1878.79264,220.808839 C1875.88964,219.357341 1872.22063,218.06714 1867.7855,216.938197 C1863.35037,215.809255 1858.22988,215.244792 1852.42389,215.244792 L1852.42389,339.589148 Z M1763.64106,588.035946 L1763.64106,152.588783 L1868.87412,152.588783 C1906.77434,152.588783 1934.35238,163.152303 1951.60908,184.27966 C1968.86578,205.407017 1977.49399,235.968651 1977.49399,275.965479 C1977.49399,295.641338 1975.59901,312.736501 1971.80899,327.251479 C1968.01897,341.766457 1962.73721,353.741134 1955.96355,363.175869 C1949.1899,372.610605 1940.48104,380.190536 1929.83672,385.915888 C1919.1924,391.64124 1907.66123,395.673118 1895.24286,398.011643 C1882.82449,400.350167 1868.47101,401.600049 1852.18198,401.761326 L1852.18198,588.035946 L1763.64106,588.035946 Z" id="P" fill="#C70031"></path>
        </g>
    </g>
</svg>